<?xml version="1.0" standalone="no"?>
<!DOCTYPE svg PUBLIC "-//W3C//DTD SVG 1.1//EN" "http://www.w3.org/Graphics/SVG/1.1/DTD/svg11.dtd" >
<svg>
<metadata>
Created by FontForge 20090914 at Fri Jun  1 19:31:43 2012
 By www-data
\(c\) Copyright 1997, 2001 Berthold LLC. All rights reserved. http://www.bertholdtypes.com
</metadata>
<defs>
<font id="NissanAGBold" horiz-adv-x="292" >
  <font-face 
    font-family="NissanAGBold"
    font-weight="400"
    font-stretch="normal"
    units-per-em="1000"
    panose-1="0 0 4 0 0 0 0 0 0 0"
    ascent="800"
    descent="-200"
    x-height="522"
    cap-height="706"
    bbox="-100 -228 1221 927"
    underline-thickness="50"
    underline-position="-75"
    unicode-range="U+0020-U+F002"
  />
<missing-glyph horiz-adv-x="500" 
d="M63 0v927h375v-927h-375zM125 63h250v802h-250v-802z" />
    <glyph glyph-name=".notdef" horiz-adv-x="500" 
d="M63 0v927h375v-927h-375zM125 63h250v802h-250v-802z" />
    <glyph glyph-name="space" unicode=" " 
 />
    <glyph glyph-name="exclam" unicode="!" 
d="M234 416l-32 -173h-67l-45 252v211h160v-204c0 -13.333 -2 -28 -6 -44c-6.66699 -25.333 -10 -39.333 -10 -42zM90 0v170h160v-170h-160z" />
    <glyph glyph-name="quotedbl" unicode="&#x22;" horiz-adv-x="318" 
d="M259 439h-37l-33 304h103zM97 439h-37l-33 304h103z" />
    <glyph glyph-name="numbersign" unicode="#" horiz-adv-x="667" 
d="M515 405l-12 -95h98v-124h-116l-26 -186h-126l27 186h-99l-26 -186h-124l25 186h-94v124h112l13 95h-100v124h117l25 177h124l-25 -177h100l24 177h125l-24 -177h91v-124h-109zM291 405l-13 -95h99l14 95h-100z" />
    <glyph glyph-name="dollar" unicode="$" horiz-adv-x="667" 
d="M376 -10l0.00195312 -120.001h-80v120c-100.667 10 -190.667 40.667 -270 92l92 104c39.333 -21.333 67.666 -35.333 84.999 -42c31.333 -12 62.333 -18 93 -18v154c-80 14.667 -135.333 31.334 -166 50.001c-50 30.667 -75 78.667 -75 144
c0 41.333 11.167 80.833 33.5 118.5s52.166 62.5 89.499 74.5c42.667 13.333 81.667 21.333 117 24v114h81v-115c72 -7.33301 146.333 -34.333 223 -81l-88 -102c-48.667 24.667 -93.667 41 -135 49v-133c62.667 -14.667 104 -26 124 -34c82 -32.667 123 -89.667 123 -171
c0 -26 -4 -51 -12 -75c-30 -90 -108.333 -141 -235 -153zM296.002 556.999c-20 -2.66699 -32.667 -4.66504 -38 -5.99805c-11.333 -4 -21.333 -11.833 -30 -23.5s-13 -23.5 -13 -35.5c0 -18.667 9.33301 -32.334 28 -41.001c10 -4.66699 27.667 -9.33398 53 -14.001v120z
M376.002 265.001v-136.999l30 7c38 12.667 57 35.667 57 69s-29 53.666 -87 60.999z" />
    <glyph glyph-name="percent" unicode="%" horiz-adv-x="875" 
d="M686 -6c-57.333 0 -99.3311 25 -125.998 75c-21.333 39.333 -32 90 -32 152c0 62.667 10.667 114.334 32 155.001c27.333 52 69.666 78 126.999 78s99.666 -26 126.999 -78c22 -40.667 33 -92.334 33 -155.001s-11 -113.667 -33 -153c-27.333 -49.333 -70 -74 -128 -74z
M289.002 -42l-79 42l375 721l80 -42zM184.002 228c-57.333 0 -99.334 25.335 -126.001 76.002c-20.667 39.333 -31 90.666 -31 153.999s10.667 114.666 32 153.999c28 50.667 71 76 129 76c56.667 0 98.334 -26 125.001 -78c21.333 -40.667 32 -92 32 -154
c0 -63.333 -11 -114.333 -33 -153c-27.333 -50 -70 -75 -128 -75zM683.001 367.002c-35.333 0 -52.999 -50.334 -52.999 -151.001c0 -91.333 19.667 -137 59 -137c37.333 0 56 47.667 56 143c0 42.667 -2 72.334 -6 89.001c-8.66699 37.333 -27.334 56 -56.001 56z
M185.002 602.001c-37.333 0 -56 -50.333 -56 -151c0 -40 2 -68.333 6 -85c8.66699 -35.333 26 -53 52 -53c37.333 0 56 47.667 56 143c0 97.333 -19.333 146 -58 146z" />
    <glyph glyph-name="ampersand" unicode="&#x26;" horiz-adv-x="688" 
d="M583 0c-30 0 -52.6631 2.66992 -67.9961 8.00293c-18 6.66699 -36.667 19.667 -56 39c-60 -36 -122.667 -54 -188 -54c-68.667 0 -125.334 18.667 -170.001 56c-48 39.333 -72 92.666 -72 159.999c0 32 8 65.167 24 99.5s36.333 60.166 61 77.499
c22 15.333 51.333 31.333 88 48c-30.667 48 -46 88.333 -46 121c0 50 18 89 54 117c32.667 25.333 74.667 38 126 38c49.333 0 90.5 -13.333 123.5 -40s49.5 -64.334 49.5 -113.001c0 -36.667 -13.333 -70.667 -40 -102c-24.667 -28 -55.334 -48.667 -92.001 -62l96 -140
c17.333 40.667 29 75.667 35 105l125 -46c-18.667 -58 -44.334 -114 -77.001 -168c21.333 -24 46.666 -35 75.999 -33l30 2v-113h-79zM334.004 603.003c-12.667 0 -24.167 -3.83203 -34.5 -11.499s-15.5 -17.834 -15.5 -30.501c0 -14.667 11.333 -40 34 -76
c22 14 36.333 24 43 30c14.667 13.333 22 28 22 44c0 29.333 -16.333 44 -49 44zM264.004 331.004c-54.667 -33.333 -82 -71.334 -82 -114.001c0 -29.333 10 -54.166 30 -74.499s44.667 -30.5 74 -30.5c25.333 0 58.333 11.333 99 34z" />
    <glyph glyph-name="quotesingle" unicode="'" horiz-adv-x="156" 
d="M97 439h-37l-33 304h103z" />
    <glyph glyph-name="parenleft" unicode="(" horiz-adv-x="335" 
d="M290 -165l-24.999 19c-40.667 30.667 -91.334 83.334 -152.001 158.001c-54.667 67.333 -82 167.333 -82 300c0 195.333 84.667 358.333 254 489l58 -60c-68 -78.667 -111.333 -140.667 -130 -186c-22.667 -54 -34 -131 -34 -231c0 -182.667 55 -322.334 165 -419.001z
" />
    <glyph glyph-name="parenright" unicode=")" horiz-adv-x="336" 
d="M190 -29c-33.333 -44 -79.333 -89.668 -138 -137.001l-58 60l35 41c51.333 60 86 118 104 174c16.667 50.667 25 118 25 202c0 182 -54.667 321.667 -164 419l54 70l24 -19c82 -64.667 141 -131 177 -199c38.667 -72 58 -158.333 58 -259
c0 -131.333 -39 -248.666 -117 -351.999z" />
    <glyph glyph-name="asterisk" unicode="*" horiz-adv-x="411" 
d="M295 500l61 -78l-85 -67l-66 85l-61 -85l-87 64l57 79l-98 29l31 104l101 -30v105h108v-105l103 35l35 -102z" />
    <glyph glyph-name="plus" unicode="+" horiz-adv-x="724" 
d="M445 259v-204h-166v204h-187v130h187v201h166v-201h187v-130h-187z" />
    <glyph glyph-name="comma" unicode="," horiz-adv-x="250" 
d="M46 -173l-0.000976562 71c22 8 37.667 21.333 47 40c6 12 10.333 32.667 13 62h-61v168h160v-137c0 -58.667 -12.167 -103.5 -36.5 -134.5s-65.166 -54.167 -122.499 -69.5z" />
    <glyph glyph-name="hyphen" unicode="-" horiz-adv-x="376" 
d="M38 237v143h299v-143h-299z" />
    <glyph glyph-name="hyphen" unicode="&#x2010;" horiz-adv-x="376" 
d="M38 237v143h299v-143h-299z" />
    <glyph glyph-name="period" unicode="." horiz-adv-x="250" 
d="M45 0v167h158v-167h-158z" />
    <glyph glyph-name="slash" unicode="/" horiz-adv-x="479" 
d="M158 0h-142l304 706h142z" />
    <glyph glyph-name="zero" unicode="0" horiz-adv-x="562" 
d="M274 -15c-54.667 0 -101.667 18.333 -141 55c-36.667 34 -61.667 78.667 -75 134c-12 50 -18 106.667 -18 170c0 93.333 16.333 170 49 230c42 76 106 114 192 114c87.333 0 151.333 -39 192 -117c32 -60.667 48 -139 48 -235c0 -97.333 -16.333 -176 -49 -236
c-42 -76.667 -108 -115 -198 -115zM279 564c-60.667 0 -91 -82 -91 -246c0 -139.333 31 -209 93 -209c44.667 0 72 35.667 82 107c5.33301 36.667 8 76 8 118c0 153.333 -30.667 230 -92 230z" />
    <glyph glyph-name="one" unicode="1" horiz-adv-x="562" 
d="M231 0v495c-32 -14 -79.667 -21 -143 -21v103c77.333 0 128.666 18 153.999 54c6.66699 9.33301 16.334 25 29.001 47h122v-678h-162z" />
    <glyph glyph-name="two" unicode="2" horiz-adv-x="562" 
d="M37 0l-0.00195312 118.001l136 107c52 44 88.667 80.667 110 110c32.667 45.333 49 93.666 49 144.999c0 62.667 -23 94 -69 94c-49.333 0 -74 -31.667 -74 -95v-32c2 -9.33301 3.33301 -16 4 -20l-161 8v25c0 74 21 130.833 63 170.5s100.333 59.5 175 59.5
c68.667 0 123.334 -17 164.001 -51c44 -36.667 66 -88.667 66 -156c0 -89.333 -42 -172 -126 -248c-33.333 -30 -78.666 -67 -135.999 -111l264 4v-128h-465z" />
    <glyph glyph-name="three" unicode="3" horiz-adv-x="562" 
d="M263 -12c-73.333 0 -130.337 19.998 -171.004 59.998s-61 96.667 -61 170v10l156 13l-1 -29c-0.666992 -27.333 6 -50.333 20 -69c15.333 -20.667 36.333 -31 63 -31c28.667 0 50.834 9.5 66.501 28.5s23.5 43.167 23.5 72.5c0 60 -32.667 88.667 -98 86l-26 -1v115
l23 -1c26 -1.33301 46.667 5.16699 62 19.5s23 34.5 23 60.5c0 22 -6.66699 40.333 -20 55s-30.666 22 -51.999 22c-46 0 -69 -32.667 -69 -98l-158 14c14.667 136.667 93.334 205 236.001 205c96.667 0 161.667 -29 195 -87c18 -31.333 27 -63 27 -95
c0 -36.667 -6.66699 -65.5 -20 -86.5s-36.333 -38.833 -69 -53.5l-23 -11c40.667 -7.33301 72.334 -24.666 95.001 -51.999s34 -61.666 34 -102.999c0 -40 -10.333 -76.667 -31 -110c-44 -69.333 -119 -104 -225 -104z" />
    <glyph glyph-name="four" unicode="4" horiz-adv-x="562" 
d="M444 157v-157h-158v156h-275l2 122l280 400h151v-411h90v-110h-90zM126 267h161v99l6 161c-19.333 -38.667 -47.333 -84.667 -84 -138z" />
    <glyph glyph-name="five" unicode="5" horiz-adv-x="562" 
d="M261 -14c-72 0 -128.666 19.832 -169.999 59.499s-62 95.5 -62 167.5l158 6c0 -74 26.667 -111 80 -111c56 0 84 42 84 126c0 78 -28.667 117 -86 117c-34.667 0 -58.334 -17.667 -71.001 -53l-138 23l41 355h389l-9 -128h-256l-17 -124c30.667 24 66.334 36 107.001 36
c63.333 0 113.666 -22 150.999 -66c35.333 -41.333 53 -94.333 53 -159c0 -75.333 -23.333 -135.666 -70 -180.999s-108 -68 -184 -68z" />
    <glyph glyph-name="six" unicode="6" horiz-adv-x="562" 
d="M285 -11c-52.667 0 -98.668 14.666 -138.001 43.999s-66.666 69.333 -81.999 120s-23 107.334 -23 170.001c0 110 16 194.333 48 253c42.667 76.667 114.667 115 216 115c118.667 0 188.334 -61.333 209.001 -184l-161 -18c0 54 -20.333 81 -61 81
c-65.333 0 -98 -71.333 -98 -214c27.333 52.667 76 79 146 79c58 0 104.333 -20.333 139 -61c32 -38 48 -86.667 48 -146c0 -74.667 -21.833 -133.167 -65.5 -175.5s-102.834 -63.5 -177.501 -63.5zM288.999 320.999c-30.667 0 -52.333 -16 -65 -48
c-6.66699 -17.333 -10 -36 -10 -56c0 -73.333 26.333 -110 79 -110c54.667 0 82 37 82 111c0 68.667 -28.667 103 -86 103z" />
    <glyph glyph-name="seven" unicode="7" horiz-adv-x="562" 
d="M278 0h-186.001c48.667 218 137 400.333 265 547h-323v131h479v-123c-129.333 -152.667 -207.666 -337.667 -234.999 -555z" />
    <glyph glyph-name="eight" unicode="8" horiz-adv-x="562" 
d="M279 -11c-68.667 0 -124.667 16.666 -168 49.999c-48 36.667 -72 88.667 -72 156c0 38.667 11 72.334 33 101.001s51.667 48.667 89 60c-62.667 32 -94 83 -94 153c0 58 21.667 103.333 65 136c39.333 30 88.666 45 147.999 45c62.667 0 112.667 -15.333 150 -46
c40.667 -33.333 61 -80.666 61 -141.999c0 -66 -32 -114.667 -96 -146l34 -13c28 -10.667 50.333 -30.334 67 -59.001c15.333 -26 23 -55 23 -87c0 -68 -23.667 -120.333 -71 -157c-43.333 -34 -99.666 -51 -168.999 -51zM282 571.999c-44 0 -66 -26.333 -66 -79
c0 -57.333 21 -86 63 -86c43.333 0 65 25.667 65 77c0 58.667 -20.667 88 -62 88zM280 302.999c-25.333 0 -45.333 -10 -60 -30c-12.667 -17.333 -19 -39.333 -19 -66c0 -65.333 25.667 -98 77 -98c52.667 0 79 32.667 79 98c0 64 -25.667 96 -77 96z" />
    <glyph glyph-name="nine" unicode="9" horiz-adv-x="562" 
d="M255 -13c-38 0 -74.667 8.66699 -110 26c-41.333 20 -67.333 46 -78 78c-9.33301 28 -16.333 55.333 -21 82l160 16c0 -53.333 20.667 -80 62 -80c65.333 0 98 71 98 213c-31.333 -52.667 -80.333 -79 -147 -79c-32.667 0 -63.5 8.16699 -92.5 24.5
s-51.167 38.5 -66.5 66.5c-18.667 34 -28 73 -28 117c0 73.333 22 131.333 66 174s103 64 177 64c52 0 102.667 -17.667 152 -53c32.667 -23.333 57 -67.333 73 -132c12 -48.667 18 -100 18 -154c0 -108.667 -16.333 -192 -49 -250c-42 -75.333 -113.333 -113 -214 -113z
M267 571c-54.667 0 -82 -37 -82 -111c0 -68 28.667 -102 86 -102c31.333 0 53.333 16.333 66 49c6 16 9 34.333 9 55c0 72.667 -26.333 109 -79 109z" />
    <glyph glyph-name="colon" unicode=":" 
d="M86 354v168h160v-168h-160zM86 0v170h160v-170h-160z" />
    <glyph glyph-name="semicolon" unicode=";" 
d="M86 354v170h160v-170h-160zM237 -42c-19.333 -68 -70 -111 -152 -129v69c24 8.66699 40.667 21.667 50 39c8 14.667 12 35.667 12 63h-61v171h160v-159c0 -14.667 -3 -32.667 -9 -54z" />
    <glyph glyph-name="less" unicode="&#x3c;" horiz-adv-x="724" 
d="M577 32l-465 226v151l465 222v-155l-314 -137l315 -144z" />
    <glyph glyph-name="equal" unicode="=" horiz-adv-x="724" 
d="M100 352v132h525v-132h-525zM100 136v131h525v-131h-525z" />
    <glyph glyph-name="greater" unicode="&#x3e;" horiz-adv-x="724" 
d="M142 31v156l314 137l-315 144l1 163l465 -226v-152z" />
    <glyph glyph-name="question" unicode="?" horiz-adv-x="604" 
d="M422 325c-25.333 -18 -40.3311 -29.333 -44.998 -34c-14 -14 -22.667 -30 -26 -48h-127c0 26.667 2.33301 47 7 61c6 17.333 17.333 34.333 34 51l95 68c37.333 32.667 56 64 56 94c0 28 -8.33301 50 -25 66s-39.334 24 -68.001 24c-35.333 0 -64 -11 -86 -33
s-33 -50.667 -33 -86l-143 47c16.667 45.333 35 80 55 104c24 28.667 56.333 49.667 97 63c37.333 12 78.333 18 123 18c69.333 0 125.666 -13.333 168.999 -40c53.333 -32.667 80 -81.667 80 -147c0 -48.667 -16.667 -90 -50 -124c-8 -8 -45.667 -36 -113 -84zM210.002 0
v170h158v-170h-158z" />
    <glyph glyph-name="at" unicode="@" horiz-adv-x="851" 
d="M561 67c-50.667 0 -81.335 22.666 -92.002 67.999c-35.333 -45.333 -77 -68 -125 -68c-46 0 -81.333 17 -106 51c-22 30 -33 69 -33 117c0 68 18.667 131 56 189c42.667 66 96.334 99 161.001 99c32.667 0 58.334 -8.66699 77.001 -26
c8 -7.33301 17.333 -18.666 28 -33.999l10 40h90l-33 -159c-18.667 -90 -28 -145 -28 -165c0 -18.667 7 -28 21 -28c19.333 0 40.666 18 63.999 54c42 64.667 63 135.667 63 213c0 68 -20 120.833 -60 158.5s-94.333 56.5 -163 56.5c-103.333 0 -191 -40 -263 -120
c-70 -77.333 -105 -168.333 -105 -273c0 -88.667 28.333 -158.667 85 -210c54.667 -50 126.667 -75 216 -75c118.667 0 227.667 48.667 327 146l46 -62c-45.333 -42 -99.666 -81.667 -162.999 -119c-49.333 -29.333 -119.333 -44 -210 -44
c-115.333 0 -217.666 43 -306.999 129c-50.667 48.667 -76 126 -76 232c0 131.333 43.5 243.5 130.5 336.5s195.833 139.5 326.5 139.5c89.333 0 161.666 -26.333 216.999 -79s83 -123.667 83 -213c0 -78 -19.667 -153 -59 -225c-46.667 -86 -106 -129 -178 -129z
M493.999 349.999c0 23.333 -5.66895 43.167 -17.002 59.5s-28 24.5 -50 24.5c-37.333 0 -67.666 -24 -90.999 -72c-18.667 -38.667 -28 -78.667 -28 -120c0 -57.333 21.333 -86 64 -86c48.667 0 85.334 39.333 110.001 118c8 25.333 12 49.333 12 72v4z" />
    <glyph glyph-name="A" unicode="A" horiz-adv-x="708" 
d="M517 0l-35 113h-260l-35 -113h-188l262 706h184l260 -706h-188zM350 538l-87 -298h179z" />
    <glyph glyph-name="B" unicode="B" horiz-adv-x="708" 
d="M632 81c-45.333 -54 -121.666 -80.998 -228.999 -80.998h-335v706h311c56 0 98.333 -3.33301 127 -10c42 -10 76 -29.833 102 -59.5s39 -65.834 39 -108.501c0 -45.333 -8.16699 -79.333 -24.5 -102s-45.833 -40.334 -88.5 -53.001
c-6.66699 -2 -19.334 -5.33301 -38.001 -10c88.667 -12.667 142.667 -43 162 -91c10.667 -26 16 -50.667 16 -74c0 -44.667 -14 -83.667 -42 -117zM391 574.002h-155v-147h133c70 0 105 25.333 105 76c0 47.333 -27.667 71 -83 71zM399 299.002h-163.001v-171h123
c42.667 0 73.334 4 92.001 12c29.333 12.667 44 37 44 73c0 57.333 -32 86 -96 86z" />
    <glyph glyph-name="C" unicode="C" horiz-adv-x="688" 
d="M378 -21c-105.333 0 -189.002 36.665 -251.002 109.998c-58.667 68.667 -88 156.667 -88 264c0 104.667 30.333 192.334 91 263.001c64.667 74.667 148.334 112 251.001 112c132 0 231.333 -61 298 -183l-139 -70c-32 72 -82.333 108 -151 108
c-57.333 0 -101.666 -24 -132.999 -72c-27.333 -41.333 -41 -92.333 -41 -153c0 -63.333 13 -115.666 39 -156.999c30.667 -49.333 75.667 -74 135 -74c62 0 113 34.667 153 104l140 -70l-25 -37c-31.333 -46 -71.5 -81.667 -120.5 -107s-101.833 -38 -158.5 -38z" />
    <glyph glyph-name="D" unicode="D" horiz-adv-x="729" 
d="M344 0h-277v706h225c184 0 300 -42.333 348 -127c39.333 -69.333 59 -142.333 59 -219c0 -116 -30.333 -205 -91 -267s-148.667 -93 -264 -93zM427 542c-21.333 10 -53 15 -95 15h-87v-415h60c79.333 0 135.333 17.333 168 52s49 92.334 49 173.001
c0 87.333 -31.667 145.666 -95 174.999z" />
    <glyph glyph-name="E" unicode="E" horiz-adv-x="646" 
d="M68 0v706h522v-136h-346v-129h323v-134h-323v-168h378v-139h-554z" />
    <glyph glyph-name="F" unicode="F" horiz-adv-x="625" 
d="M243 571v-149h337v-136h-337v-286h-176v706h542v-135h-366z" />
    <glyph glyph-name="G" unicode="G" horiz-adv-x="750" 
d="M566 0l0.000976562 65.002c-58 -54 -127.333 -81 -208 -81c-98.667 0 -177.334 36.333 -236.001 109c-54.667 66.667 -82 150.667 -82 252c0 74 13.667 140.333 41 199c31.333 66 77.333 114 138 144c56.667 28 113.334 42 170.001 42c124 0 227.333 -54.333 310 -163
l-134 -81c-42 66 -96.667 99 -164 99c-62.667 0 -110 -23 -142 -69c-28.667 -40.667 -43 -93.334 -43 -158.001c0 -154.667 61.667 -232 185 -232c25.333 0 50.666 5 75.999 15c29.333 12 48.833 28.167 58.5 48.5s16.167 43.166 19.5 68.499h-158v134h307v-392h-138z" />
    <glyph glyph-name="H" unicode="H" horiz-adv-x="750" 
d="M504 0v301h-258v-301h-178v706h179v-255h257v255h177v-706h-177z" />
    <glyph glyph-name="I" unicode="I" horiz-adv-x="313" 
d="M67 0v706h176v-706h-176z" />
    <glyph glyph-name="J" unicode="J" horiz-adv-x="396" 
d="M141 0h-125v143h51c28.667 0 49 3.33301 61 10c17.333 9.33301 26 27 26 53v500h177v-539c0 -62 -16.667 -106 -50 -132c-30 -23.333 -76.667 -35 -140 -35z" />
    <glyph glyph-name="K" unicode="K" horiz-adv-x="708" 
d="M533 0l-188 320l-109 -113v-207h-168v706h168v-288l264 288h213l-250 -262l269 -444h-199z" />
    <glyph glyph-name="L" unicode="L" horiz-adv-x="542" 
d="M68 0v706h176v-557h276v-149h-452z" />
    <glyph glyph-name="M" unicode="M" horiz-adv-x="917" 
d="M678 0l13 575.001l-23 -101l-133 -474h-152l-159 580l6 -135l10 -445h-172v706h258l108 -396c2.66699 -10 6.66699 -27.333 12 -52l13 -61c4.66699 27.333 11 56.666 19 87.999l112 421h258v-706h-170z" />
    <glyph glyph-name="N" unicode="N" horiz-adv-x="729" 
d="M487 0l-132 223l-124 221l6 -444h-170v706h173l153 -259l106 -194l-8 453h169v-706h-173z" />
    <glyph glyph-name="O" unicode="O" horiz-adv-x="792" 
d="M512 -3c-37.333 -12 -77.001 -17.999 -119.001 -17.999c-108 0 -194.333 36.333 -259 109c-61.333 69.333 -92 158.666 -92 267.999c0 107.333 31.333 195.333 94 264c64.667 72 150 108 256 108c163.333 0 273 -76 329 -228c18.667 -50.667 28 -101 28 -151
c0 -79.333 -20.667 -151 -62 -215c-43.333 -67.333 -101.666 -113 -174.999 -137zM390.999 580.001c-58 0 -102.668 -23.333 -134.001 -70c-27.333 -40.667 -41 -91.334 -41 -152.001c0 -63.333 13.667 -115.666 41 -156.999c32 -48.667 78 -73 138 -73
c32.667 0 62.834 8.33301 90.501 25s48.167 39.667 61.5 69c16.667 36 25 78.667 25 128c0 64 -14 116.667 -42 158c-32 48 -78.333 72 -139 72z" />
    <glyph glyph-name="P" unicode="P" horiz-adv-x="688" 
d="M625 323c-22 -26.667 -42 -45.333 -60 -56c-12 -6.66699 -32 -14 -60 -22c-34 -9.33301 -81.667 -14 -143 -14h-118v-231h-177v706h319c65.333 0 115 -5.33301 149 -16c50 -16.667 86.333 -48 109 -94c18.667 -38 28 -79 28 -123c0 -62 -15.667 -112 -47 -150z
M357 576.001h-113v-214h107c48.667 0 83.667 6.33301 105 19c27.333 16 41 46.667 41 92c0 40.667 -14 69 -42 85c-21.333 12 -54 18 -98 18z" />
    <glyph glyph-name="Q" unicode="Q" horiz-adv-x="792" 
d="M766 -65c-41.333 7.33301 -76.001 18.333 -104.001 33c-18.667 10 -48.667 30.333 -90 61c-66.667 -32.667 -126 -49 -178 -49c-108.667 0 -195 36 -259 108c-62 68.667 -93 158 -93 268c0 107.333 31.667 195.333 95 264c65.333 71.333 151 107 257 107
c106.667 0 192.667 -34.5 258 -103.5s98 -157.167 98 -264.5c0 -80 -23.333 -158.333 -70 -235c38.667 -34 84.334 -55 137.001 -63zM559.999 448c-26.667 86 -85.332 128.998 -175.999 128.998c-68.667 0 -116.667 -35.333 -144 -106c-14.667 -38 -22 -76.333 -22 -115
c0 -63.333 14 -115.666 42 -156.999c32 -47.333 78.333 -71 139 -71c59.333 0 104.666 24 135.999 72c26.667 40.667 40 92.334 40 155.001c0 30 -5 61 -15 93z" />
    <glyph glyph-name="R" unicode="R" horiz-adv-x="708" 
d="M496 0l-141 252h-110v-252h-178v706h327c131.333 0 214.333 -36 249 -108c19.333 -40 29 -80 29 -120c0 -96.667 -48.333 -162 -145 -196l163 -282h-194zM394 575h-150v-192h146c70.667 0 106 32.333 106 97c0 63.333 -34 95 -102 95z" />
    <glyph glyph-name="S" unicode="S" horiz-adv-x="688" 
d="M331 -16c-132.667 0 -240.001 47.999 -322.001 143.999l134 85c50 -60 118 -90 204 -90c30 0 57.333 6 82 18c32 15.333 48 36 48 62c0 30 -13 49 -39 57c-7.33301 2 -46.333 9 -117 21l-90 15c-53.333 8.66699 -96.333 29 -129 61c-36 34.667 -54 78 -54 130
c0 78.667 28.667 138.667 86 180c50.667 37.333 116.667 56 198 56c110 0 214 -44.333 312 -133l-129 -93c-62 58 -123.667 87 -185 87c-26.667 0 -50 -5.66699 -70 -17c-24 -13.333 -36 -32.333 -36 -57c0 -27.333 14.667 -45.666 44 -54.999
c18.667 -6 41.667 -10.667 69 -14l71 -9c47.333 -8 83.333 -16.333 108 -25c90.667 -30.667 136 -89.667 136 -177c0 -48 -13.667 -91.667 -41 -131c-53.333 -76.667 -146.666 -115 -279.999 -115z" />
    <glyph glyph-name="T" unicode="T" horiz-adv-x="562" 
d="M369 567v-567h-178v567h-184v139h545v-139h-183z" />
    <glyph glyph-name="U" unicode="U" horiz-adv-x="729" 
d="M644 154c-22 -55.333 -60.333 -98 -115 -128c-50 -28 -106.333 -42 -169 -42c-51.333 0 -101.333 10.667 -150 32c-56 24.667 -93.667 57.667 -113 99c-23.333 50.667 -35 109 -35 175v416h178v-440c0 -42 5.33301 -72.333 16 -91c17.333 -30 54.666 -45 111.999 -45
c44.667 0 76.334 12 95.001 36c16.667 21.333 25 55 25 101v439h177v-394c0 -70 -7 -122.667 -21 -158z" />
    <glyph glyph-name="V" unicode="V" horiz-adv-x="667" 
d="M421 0h-180l-242 706h188l146 -502l145 502h188z" />
    <glyph glyph-name="W" unicode="W" horiz-adv-x="979" 
d="M798 0h-182.001l-59 210l-68 257c-9.33301 -43.333 -19.666 -85.333 -30.999 -126l-97 -341h-182l-179 706h176l40 -174c30 -130.667 51.667 -247.667 65 -351l128 525h156l108 -384l25 -139l25 157l79 366h175z" />
    <glyph glyph-name="X" unicode="X" horiz-adv-x="771" 
d="M566 0l-181 267l-183 -267h-202l273 383l-235 323h209l136 -213l138 213h205l-233 -323l276 -383h-203z" />
    <glyph glyph-name="Y" unicode="Y" horiz-adv-x="708" 
d="M441 334v-334h-174v329l-265 377h202l152 -242l30 53l121 189h201z" />
    <glyph glyph-name="Z" unicode="Z" horiz-adv-x="625" 
d="M223 139h383v-139h-601v133l391 436h-358v137h570v-138z" />
    <glyph glyph-name="bracketleft" unicode="[" 
d="M51 -144v923h224v-84h-91v-755h91v-84h-224z" />
    <glyph glyph-name="backslash" unicode="\" horiz-adv-x="479" 
d="M320 0l-304 706h142l304 -706h-142z" />
    <glyph glyph-name="bracketright" unicode="]" 
d="M17 -144v84h91v755h-91v84h224v-923h-224z" />
    <glyph glyph-name="asciicircum" unicode="^" horiz-adv-x="724" 
d="M486 281l-118 281l-121 -281h-174l214 425h156l208 -425h-165z" />
    <glyph glyph-name="underscore" unicode="_" horiz-adv-x="500" 
d="M-10 -228v103h520v-103h-520z" />
    <glyph glyph-name="grave" unicode="`" horiz-adv-x="271" 
d="M164 587l-158 133h185l74 -133h-101z" />
    <glyph glyph-name="a" unicode="a" horiz-adv-x="583" 
d="M375 0v47c-54 -40.667 -107.333 -61 -160 -61c-30.667 0 -60 6.33301 -88 19c-32 14.667 -53 34.667 -63 60c-13.333 34 -20 60.667 -20 80c0 32 9.66699 61.333 29 88s44 46.667 74 60c36.667 16 107.667 32.667 213 50v28c0 42.667 -19.667 64 -59 64
c-46 0 -73 -20.333 -81 -61h-154c0 108 75.333 162 226 162c60 0 108.667 -10 146 -30c48.667 -25.333 73 -65.333 73 -120v-317c0 -30.667 5 -53.667 15 -69h-151zM261 217c-44 -14.667 -66 -36.333 -66 -65c0 -15.333 5.66699 -28 17 -38s25 -15 41 -15
c38 0 66.333 16.667 85 50c14.667 26 22 59.667 22 101z" />
    <glyph glyph-name="b" unicode="b" horiz-adv-x="625" 
d="M363 -14c-60 0 -110.666 23 -151.999 69l6 -55h-148v706h150v-232c39.333 42 89 63 149 63c42 0 80.167 -10.667 114.5 -32s60.166 -51 77.499 -89c20 -42.667 30 -90.667 30 -144c0 -80 -17.333 -145.667 -52 -197c-40 -59.333 -98.333 -89 -175 -89zM335.001 425
c-58 0 -94.665 -27.667 -109.998 -83c-6.66699 -24 -10 -49.667 -10 -77c0 -34 2.66699 -60.333 8 -79c7.33301 -25.333 20.666 -46 39.999 -62s41.666 -24 66.999 -24c73.333 0 110 55.667 110 167c0 105.333 -35 158 -105 158z" />
    <glyph glyph-name="c" unicode="c" horiz-adv-x="500" 
d="M292 -17c-44.667 0 -87.001 10.166 -127.001 30.499s-71 49.166 -93 86.499c-26 44.667 -39 97 -39 157c0 83.333 23 150.833 69 202.5s110.333 77.5 193 77.5c98.667 0 173 -42 223 -126l-114 -65c-23.333 48.667 -57 73 -101 73c-36.667 0 -65.334 -17.333 -86.001 -52
c-17.333 -29.333 -26 -63.666 -26 -102.999c0 -41.333 8.66699 -76.666 26 -105.999c20.667 -35.333 50.334 -53 89.001 -53c50 0 84 26 102 78l116 -60c-59.333 -93.333 -136.666 -140 -231.999 -140z" />
    <glyph glyph-name="d" unicode="d" horiz-adv-x="604" 
d="M396 0v49.001c-42 -42 -87.667 -63 -137 -63c-75.333 0 -133.333 27.333 -174 82c-36 49.333 -54 112.666 -54 189.999c0 52 8.33301 99.333 25 142c20 51.333 50 87.333 90 108c36.667 18.667 70.667 28 102 28c48 0 94 -17.667 138 -53v223h150v-706h-140zM293 420.001
h-10.999c-8.66699 0 -24.334 -6.33301 -47.001 -19c-32 -18 -48 -65.333 -48 -142c0 -106 32 -159 96 -159c71.333 0 107 54.333 107 163c0 104.667 -32.333 157 -97 157z" />
    <glyph glyph-name="e" unicode="e" horiz-adv-x="583" 
d="M189 230l-0.000976562 -6.99902c0 -36 10.833 -65.667 32.5 -89s50.5 -35 86.5 -35c33.333 0 60.333 8 81 24c17.333 14 34.333 37 51 69l116 -60c-25.333 -36.667 -47.666 -63.667 -66.999 -81c-24.667 -22.667 -55 -40 -91 -52s-70 -18 -102 -18
c-82 0 -146.5 24.5 -193.5 73.5s-70.5 114.5 -70.5 196.5c0 86 23 154.667 69 206c48 54 114.333 81 199 81c57.333 0 111 -16 161 -48c36 -22.667 62.667 -61.334 80 -116.001c14 -43.333 21 -91.333 21 -144h-373zM298.999 428.001c-59.333 0 -95.667 -34.333 -109 -103
h213c-9.33301 68.667 -44 103 -104 103z" />
    <glyph glyph-name="f" unicode="f" horiz-adv-x="354" 
d="M245 416l-0.000976562 -416h-153v416h-82v94h82l-1 50c-1.33301 55.333 10.334 94.333 35.001 117c28.667 26.667 69.667 40 123 40c-4.66699 0 26 -3 92 -9v-116h-35c-30 0 -48.333 -6.33301 -55 -19c-4.66699 -8.66699 -7 -29.667 -7 -63h103v-94h-102z" />
    <glyph glyph-name="g" unicode="g" horiz-adv-x="604" 
d="M520 -79c-34 -72 -114.333 -108 -241 -108c-36 0 -71 4.33301 -105 13c-42 10.667 -72.667 26.334 -92 47.001c-28.667 31.333 -43 73.666 -43 126.999h159c0 -56.667 31.333 -85 94 -85c35.333 0 60 8.16699 74 24.5s20.667 42.5 20 78.5l-1 51
c-46 -29.333 -92 -44 -138 -44c-70.667 0 -125 24.667 -163 74c-35.333 45.333 -53 104 -53 176c0 73.333 18.333 133.333 55 180c39.333 50.667 95 76 167 76c54.667 0 101 -19 139 -57v49h145v-502c0 -42.667 -5.66699 -76 -17 -100zM286 416c-64 0 -96 -47.333 -96 -142
c0 -88.667 32.667 -133 98 -133c64 0 96 46 96 138c0 42 -5.66699 73.667 -17 95c-15.333 28 -42.333 42 -81 42z" />
    <glyph glyph-name="h" unicode="h" horiz-adv-x="604" 
d="M384 0l-0.000976562 273.001c0 40.667 -3.66699 70 -11 88c-12 29.333 -34.667 44 -68 44c-55.333 0 -83 -40 -83 -120v-285h-154v706h154v-239c44.667 46 94.334 69 149.001 69c32.667 0 63 -7.66699 91 -23c31.333 -16.667 52 -39.334 62 -68.001
c8.66699 -24 13 -56 13 -96v-349h-153z" />
    <glyph glyph-name="i" unicode="i" 
d="M69 587v119h153v-119h-153zM69 0v522h153v-522h-153z" />
    <glyph glyph-name="j" unicode="j" 
d="M69 588v118h152v-118h-152zM71 -178l-70.999 2.00098v122l16 -1c23.333 -1.33301 38.666 4 45.999 16c4.66699 8.66699 7 26 7 52v509h152v-535c0 -56.667 -10.333 -98 -31 -124c-24 -28.667 -63.667 -42.334 -119 -41.001z" />
    <glyph glyph-name="k" unicode="k" horiz-adv-x="583" 
d="M417 0l-134 225l-66 -63v-162h-150v706h151v-363l169 179h185l-180 -186l203 -336h-178z" />
    <glyph glyph-name="l" unicode="l" 
d="M69 0v706h153v-706h-153z" />
    <glyph glyph-name="m" unicode="m" horiz-adv-x="896" 
d="M675 0l0.00195312 309.998c0 67.333 -24 101 -72 101c-52.667 0 -79 -34 -79 -102v-309h-153v310c0 22.667 -1.33301 39.334 -4 50.001c-4 14.667 -12.667 26.667 -26 36s-28 14 -44 14c-52 0 -78 -37.333 -78 -112v-298h-152v522h152v-55
c37.333 46 86.666 69 147.999 69c32.667 0 59.667 -4.5 81 -13.5s43 -25.167 65 -48.5c45.333 41.333 97 62 155 62c32 0 61.333 -6.66699 88 -20c31.333 -15.333 51.666 -36.666 60.999 -63.999c7.33301 -22 11 -51.333 11 -88v-364h-153z" />
    <glyph glyph-name="n" unicode="n" horiz-adv-x="604" 
d="M381 0l0.000976562 295c0 40.667 -3 68 -9 82c-10 23.333 -32 35 -66 35c-36.667 0 -60.667 -13.333 -72 -40c-6.66699 -16 -10 -46 -10 -90v-282h-154v521h156v-45c35.333 39.333 84.333 59 147 59c41.333 0 77.666 -10 108.999 -30c35.333 -22.667 53 -72 53 -148v-357
h-154z" />
    <glyph glyph-name="o" unicode="o" horiz-adv-x="625" 
d="M575 157c-40 -115.333 -127.332 -172.999 -261.999 -172.999c-86 0 -154.333 24.667 -205 74s-76 117 -76 203c0 85.333 24.667 152.833 74 202.5s116.666 74.5 201.999 74.5c54 0 106.333 -11.333 157 -34c40.667 -18 72.667 -52 96 -102
c21.333 -44.667 32 -91.334 32 -140.001c0 -35.333 -6 -70.333 -18 -105zM316.001 416.001h-12.999c-48.667 0 -82.334 -24 -101.001 -72c-10 -25.333 -15 -52.333 -15 -81c0 -44 9.66699 -80 29 -108c22 -32 54.333 -48 97 -48c40.667 0 72 15 94 45
c20 27.333 30 62 30 104c0 106.667 -40.333 160 -121 160z" />
    <glyph glyph-name="p" unicode="p" horiz-adv-x="604" 
d="M349 -10c-40 0 -83.002 14.666 -129.002 43.999v-215h-156v701h137v-49c36.667 42 85.334 63 146.001 63c74.667 0 132.334 -28 173.001 -84c36.667 -49.333 55 -112.666 55 -189.999c0 -76 -18 -138.667 -54 -188c-40.667 -54.667 -98 -82 -172 -82zM322.998 424.999
c-38.667 0 -67.667 -18.668 -87 -56.001c-15.333 -29.333 -23 -65.666 -23 -108.999c0 -106 35.333 -159 106 -159c38 0 66.333 18.667 85 56c15.333 30 23 65.667 23 107s-7 76.333 -21 105c-18 37.333 -45.667 56 -83 56z" />
    <glyph glyph-name="q" unicode="q" horiz-adv-x="604" 
d="M382 -180v217c-40 -32 -85 -48 -135 -48c-40 0 -76.667 10.667 -110 32s-58.333 50 -75 86c-20.667 44 -31 93.333 -31 148c0 79.333 17.333 144.333 52 195c40.667 57.333 99 86 175 86c46 0 92 -19.667 138 -59v44h140v-701h-154zM291 426
c-45.333 0 -76.667 -25.668 -94 -77.001c-9.33301 -27.333 -14 -56 -14 -86c0 -38 8 -72.333 24 -103c19.333 -38 46.333 -57 81 -57c38 0 66 19 84 57c14 29.333 21 65 21 107c0 40.667 -7 75.334 -21 104.001c-17.333 36.667 -44.333 55 -81 55z" />
    <glyph glyph-name="r" unicode="r" horiz-adv-x="375" 
d="M316 384c-36 -6 -60 -13.333 -72 -22c-16 -12 -24 -34.667 -24 -68v-294h-153v523h149v-55c38 33.333 88.333 53.333 151 60v-136z" />
    <glyph glyph-name="s" unicode="s" horiz-adv-x="521" 
d="M250 -14c-92.667 0 -176.668 33.6689 -252.001 101.002l97 88c48 -48 99 -72 153 -72c61.333 0 92 17.333 92 52c0 15.333 -36 33 -108 53c-91.333 25.333 -138.333 39 -141 41c-37.333 17.333 -56 55.666 -56 114.999c0 67.333 33.333 117 100 149
c36 17.333 75.667 26 119 26c80 0 158 -26 234 -78l-95 -88c-44.667 34.667 -88 52 -130 52c-49.333 0 -74 -13.667 -74 -41c0 -17.333 23 -31 69 -41c16 -2.66699 43.667 -8.33398 83 -17.001c104 -24 156 -76.333 156 -157c0 -61.333 -27 -108.333 -81 -141
c-45.333 -28 -100.666 -42 -165.999 -42z" />
    <glyph glyph-name="t" unicode="t" horiz-adv-x="354" 
d="M239 415l-0.000976562 -255c0 -26 13.333 -38.667 40 -38l54 1v-119c-22.667 -5.33301 -49.667 -8 -81 -8c-61.333 0 -103.666 11 -126.999 33c-25.333 23.333 -38 65 -38 125v262h-76v94h76v163h152v-164h102v-94h-102z" />
    <glyph glyph-name="u" unicode="u" horiz-adv-x="604" 
d="M380 0l0.000976562 50c-35.333 -43.333 -85.666 -65 -150.999 -65c-62.667 0 -107 18.333 -133 55c-21.333 30.667 -32 79 -32 145v337h155v-331c0 -21.333 0.666992 -34.333 2 -39c3.33301 -13.333 12.666 -24 27.999 -32c13.333 -6.66699 27.666 -10 42.999 -10
c59.333 0 89 29 89 87v325h153v-522h-154z" />
    <glyph glyph-name="v" unicode="v" horiz-adv-x="500" 
d="M330 0h-161l-170 522h163l50 -189c18.667 -71.333 32.667 -135 42 -191l87 380h158z" />
    <glyph glyph-name="w" unicode="w" horiz-adv-x="792" 
d="M634 0h-167l-77 348l-78 -348h-169l-143 522h162l73 -365l79 365h164l72 -368l81 368h159z" />
    <glyph glyph-name="x" unicode="x" horiz-adv-x="521" 
d="M356 0l-99 162l-87 -162h-170l177 283l-158 239h174l69 -133l74 133h165l-158 -244l177 -278h-164z" />
    <glyph glyph-name="y" unicode="y" horiz-adv-x="500" 
d="M316 -42c-15.333 -48 -33.333 -81.667 -54 -101c-24.667 -24.667 -60 -37 -106 -37h-111v123h54c42.667 0 64 12.667 64 38c0 10 -8.66699 43 -26 99l-137 442h164l86 -374l86 374h164z" />
    <glyph glyph-name="z" unicode="z" horiz-adv-x="542" 
d="M34 0v115l282 289h-252v118h447v-118l-278 -285h278v-119h-477z" />
    <glyph glyph-name="braceleft" unicode="{" horiz-adv-x="317" 
d="M241 -148c-46 0 -79.3359 7.33203 -100.003 21.999c-24 16.667 -38 46.667 -42 90c-1.33301 14 -2 30.333 -2 49v155c0 38.667 -4.66699 64.334 -14 77.001c-11.333 15.333 -35.333 25 -72 29v87c34 0 57.333 9.33301 70 28c10.667 15.333 16 41.333 16 78v154
c0 41.333 3.33301 72 10 92c10.667 32 31.334 52.667 62.001 62c16 4.66699 39.667 7 71 7h64v-84h-16c-29.333 0 -46.666 -12.333 -51.999 -37c-3.33301 -16.667 -5 -40.334 -5 -71.001v-139c0 -39.333 -4.66699 -67.666 -14 -84.999c-11.333 -20 -34.333 -36.667 -69 -50
c22.667 -7.33301 40.334 -16.333 53.001 -27c20 -17.333 30 -53 30 -107v-138c0 -32.667 3 -60.667 9 -84c4 -16.667 21.667 -25 53 -25h12v-83h-64z" />
    <glyph glyph-name="bar" unicode="|" horiz-adv-x="256" 
d="M61 -143v922h133v-922h-133z" />
    <glyph glyph-name="braceright" unicode="}" horiz-adv-x="317" 
d="M219 167l0.999023 -170.996c0.666992 -77.333 -23.333 -123.333 -72 -138c-15.333 -4.66699 -39 -7 -71 -7h-65v84h16c30 0 47.667 11.667 53 35c2.66699 11.333 4 35.666 4 72.999v139c0 39.333 4.66699 67.666 14 84.999c11.333 20 34.333 36.667 69 50
c-18.667 6 -35.667 15.333 -51 28c-21.333 17.333 -32 52.666 -32 105.999v167c0 27.333 -3.33301 46.333 -10 57c-8.66699 15.333 -25.667 23 -51 23h-12v84l64 -1c18.667 0 43 -2.33301 73 -7c34 -10 55.667 -33.667 65 -71c4 -15.333 6 -43 6 -83v-6l-1 -149
c0 -37.333 5 -63 15 -77c12 -16 36 -25.667 72 -29v-86c-16 -1.33301 -27.333 -3 -34 -5c-23.333 -6.66699 -38.666 -19.667 -45.999 -39c-4.66699 -12.667 -7 -33.334 -7 -62.001z" />
    <glyph glyph-name="asciitilde" unicode="~" horiz-adv-x="724" 
d="M489 207c-28.667 0 -69.001 12.667 -121.001 38l-35 17c-41.333 20 -76 30 -104 30c-23.333 0 -45.333 -8.33301 -66 -25c-9.33301 -7.33301 -21.666 -21.333 -36.999 -42l-9 -12l-47 132c27.333 36.667 49.333 61 66 73c25.333 18 56.333 27 93 27
c28 0 68.333 -12 121 -36l57 -26c36.667 -16.667 63 -25 79 -25c30 0 59.667 14 89 42c8 7.33301 19 19.333 33 36l46 -130c-14 -17.333 -26.333 -31 -37 -41c-41.333 -38.667 -84 -58 -128 -58z" />
    <glyph glyph-name="nonbreakingspace" unicode="&#xa0;" 
 />
    <glyph glyph-name="exclamdown" unicode="&#xa1;" 
d="M41 538v168h159v-168h-159zM41 0v204.999c0 8.66699 2.66699 25.334 8 50.001l8 37l31 173h67l30 -169c0.666992 -4.66699 3.66699 -18.667 9 -42c4 -18 6 -32 6 -42v-212h-159z" />
    <glyph glyph-name="cent" unicode="&#xa2;" horiz-adv-x="542" 
d="M343 -13v-118.999h-76v117c-74 8 -131.667 35.667 -173 83s-62 108.333 -62 183c0 78.667 19 143.667 57 195c42.667 58 102 87 178 87v112h77v-113c75.333 -12.667 136 -53 182 -121l-114 -66c-19.333 36 -42 58 -68 66v-302c28 7.33301 52 31.666 72 72.999l114 -59
c-25.333 -40.667 -51 -71 -77 -91c-30 -22.667 -66.667 -37.667 -110 -45zM267 411.001c-26 -10.667 -45.667 -31.667 -59 -63c-11.333 -26.667 -17 -56 -17 -88c0 -72 25.333 -121 76 -147v298z" />
    <glyph glyph-name="sterling" unicode="&#xa3;" horiz-adv-x="688" 
d="M517 -6c-42 0 -97.333 24.0049 -166 72.0049c-14.667 -16.667 -28.334 -30.334 -41.001 -41.001c-31.333 -26.667 -77 -40 -137 -40c-41.333 0 -76.666 9.66699 -105.999 29c-34 22 -51 52.667 -51 92c0 41.333 18 73.666 54 96.999c30.667 20 68 30 112 30
c16 0 37 -1.66699 63 -5c-12.667 26 -26.667 49.667 -42 71h-145v98h77c-24 34 -36 72 -36 114c0 40 14 75.667 42 107c26 29.333 59.333 49.666 100 60.999s86.667 17 138 17c127.333 0 203.333 -37.667 228 -113c13.333 -40 20 -78.667 20 -116l-153 -11
c0 40.667 -6.66699 69.667 -20 87c-16 20 -43.667 30 -83 30c-69.333 0 -104 -27 -104 -81c0 -25.333 14.667 -57 44 -95h156v-98h-90c17.333 -29.333 26 -61.333 26 -96c0 -9.33301 -1.33301 -23.333 -4 -42c29.333 -24.667 51.333 -37 66 -37
c22.667 0 37.667 14.333 45 43c3.33301 13.333 5 36.666 5 69.999l145 -11c0 -60.667 -5.33301 -105.334 -16 -134.001c-24.667 -65.333 -67 -98 -127 -98zM182 152.005c-38 0 -57.001 -13.667 -57.001 -41c0 -26 15.667 -39 47 -39c34 0 59.667 20.667 77 62
c-27.333 12 -49.666 18 -66.999 18z" />
    <glyph glyph-name="currency" unicode="&#xa4;" horiz-adv-x="604" 
d="M520 -79c-34 -72 -114.333 -108 -241 -108c-36 0 -71 4.33301 -105 13c-42 10.667 -72.667 26.334 -92 47.001c-28.667 31.333 -43 73.666 -43 126.999h159c0 -56.667 31.333 -85 94 -85c35.333 0 60 8.16699 74 24.5s20.667 42.5 20 78.5l-1 51
c-46 -29.333 -92 -44 -138 -44c-70.667 0 -125 24.667 -163 74c-35.333 45.333 -53 104 -53 176c0 73.333 18.333 133.333 55 180c39.333 50.667 95 76 167 76c54.667 0 101 -19 139 -57v49h145v-502c0 -42.667 -5.66699 -76 -17 -100zM286 416c-64 0 -96 -47.333 -96 -142
c0 -88.667 32.667 -133 98 -133c64 0 96 46 96 138c0 42 -5.66699 73.667 -17 95c-15.333 28 -42.333 42 -81 42zM295 571c-28 0 -54.666 5.99902 -79.999 17.999c-28.667 14 -47.334 32.833 -56.001 56.5s-14.667 48.834 -18 75.501h101c0 -41.333 17.333 -62 52 -62
c36.667 0 55 20.333 55 61h101c-1.33301 -8 -3.66602 -20 -6.99902 -36c-6.66699 -35.333 -24.334 -63.333 -53.001 -84c-26 -19.333 -57.667 -29 -95 -29z" />
    <glyph glyph-name="yen" unicode="&#xa5;" horiz-adv-x="708" 
d="M535 456h85v-108h-164l-15 -21v-48h179v-108h-179v-171h-174v171h-180v108h180v43l-19 26h-161v108h84l-169 236h202l152 -236l151 236h201z" />
    <glyph glyph-name="brokenbar" unicode="&#xa6;" horiz-adv-x="256" 
d="M60 376v402h134v-402h-134zM60 -144v401h134v-401h-134z" />
    <glyph glyph-name="section" unicode="&#xa7;" horiz-adv-x="604" 
d="M489 93c22.667 -30 33.9971 -58.334 33.9971 -85.001c0 -22 -8 -47.333 -24 -76c-13.333 -23.333 -37.666 -42.333 -72.999 -57c-29.333 -12 -60 -18 -92 -18c-87.333 0 -181 30.667 -281 92l97 80c60.667 -40 117.667 -60 171 -60c36.667 0 55 10.667 55 32
c0 11.333 -42.667 39 -128 83c-102.667 52.667 -155.667 80.667 -159 84c-45.333 30.667 -68 73.334 -68 128.001c0 60.667 33.667 111.667 101 153c-25.333 29.333 -38 59 -38 89c0 31.333 9.33301 59.333 28 84s43 42.334 73 53.001c28 10 59.667 15 95 15
c78.667 0 169.334 -28.667 272.001 -86l-97 -79c-68 35.333 -124 53 -168 53c-36 0 -54 -9.66699 -54 -29c0 -12.667 7 -23.334 21 -32.001c4 -2 16.333 -7.66699 37 -17l91 -42c68.667 -31.333 114.334 -56 137.001 -74c45.333 -35.333 68 -78.333 68 -129
c0 -60 -32.667 -114 -98 -162zM309.997 337.999l-106 53c-30 -18.667 -45 -41.667 -45 -69c0 -18.667 8.66699 -35.667 26 -51c10 -8.66699 25 -17.667 45 -27c12.667 -5.33301 35.667 -16 69 -32l108 -56c27.333 26 41 50.333 41 73c0 26 -17.667 48.667 -53 68z" />
    <glyph glyph-name="dieresis" unicode="&#xa8;" horiz-adv-x="271" 
d="M182 597v124h158v-124h-158zM-69 597v124h157v-124h-157z" />
    <glyph glyph-name="copyright" unicode="&#xa9;" horiz-adv-x="823" 
d="M411 -2c-100 0 -184.167 34.333 -252.5 103s-102.5 153 -102.5 253c0 100.667 34.167 185.167 102.5 253.5s152.833 102.5 253.5 102.5c98.667 0 182.667 -33.667 252 -101s104 -150 104 -248c0 -104 -33.5 -190.5 -100.5 -259.5s-152.5 -103.5 -256.5 -103.5zM412 668
c-87.333 0 -160.332 -30.6689 -218.999 -92.002s-88 -135.666 -88 -222.999c0 -88 29.167 -162.167 87.5 -222.5s131.166 -90.5 218.499 -90.5c84.667 0 157.167 30 217.5 90s90.5 132.333 90.5 217c0 90.667 -28.667 166.834 -86 228.501s-131 92.5 -221 92.5z
M557.001 170.998c-34 -34 -80.666 -50.999 -139.999 -50.999c-66 0 -119.333 23 -160 69c-38 44 -57 99.667 -57 167c0 66.667 19.833 122.167 59.5 166.5s92.167 66.5 157.5 66.5s121.666 -26.667 168.999 -80l-69 -80c-30.667 35.333 -64 53 -100 53
c-34 0 -60 -13 -78 -39c-16 -22.667 -24 -51.667 -24 -87c0 -34.667 8.33301 -63.334 25 -86.001c18 -25.333 43.667 -38 77 -38c32.667 0 65 17 97 51l72 -83z" />
    <glyph glyph-name="ordfeminine" unicode="&#xaa;" horiz-adv-x="333" 
d="M211 432l-1.00098 23.999c-24.667 -19.333 -50.667 -29 -78 -29s-50 7.33301 -68 22s-27 35.334 -27 62.001c0 18 5.83301 34.833 17.5 50.5s26.167 26.5 43.5 32.5c10.667 2 33 6.66699 67 14l41 9v7c0 22.667 -12 34 -36 34c-21.333 0 -33.666 -10.667 -36.999 -32h-85
c0 60 39.333 90 118 90c80 0 120 -27.333 120 -82v-174c0 -10 3.33301 -19.333 10 -28h-85zM204.999 561.999l-51 -14c-22 -8.66699 -33 -19.667 -33 -33c0 -16.667 9.33301 -25 28 -25c37.333 0 56 22.667 56 68v4z" />
    <glyph glyph-name="guillemotleft" unicode="&#xab;" horiz-adv-x="417" 
d="M220 230v125l158 134v-138l-68 -57l68 -57v-137zM32 231v124l160 134v-138l-65 -57l65 -57v-137z" />
    <glyph glyph-name="logicalnot" unicode="&#xac;" horiz-adv-x="724" 
d="M468 24v232h-400v134h566v-366h-166z" />
    <glyph glyph-name="minus" unicode="&#xad;" horiz-adv-x="724" 
d="M80 253v139h565v-139h-565z" />
    <glyph glyph-name="minus" unicode="&#x2212;" horiz-adv-x="724" 
d="M80 253v139h565v-139h-565z" />
    <glyph glyph-name="registered" unicode="&#xae;" horiz-adv-x="823" 
d="M411 -2c-100 0 -184.167 34.333 -252.5 103s-102.5 153 -102.5 253c0 100.667 34.167 185.167 102.5 253.5s152.833 102.5 253.5 102.5c98.667 0 182.667 -33.667 252 -101s104 -150 104 -248c0 -104 -33.5 -190.5 -100.5 -259.5s-152.5 -103.5 -256.5 -103.5zM412 668
c-87.333 0 -160.332 -30.6689 -218.999 -92.002s-88 -135.666 -88 -222.999c0 -88 29.167 -162.167 87.5 -222.5s131.166 -90.5 218.499 -90.5c84.667 0 157.167 30 217.5 90s90.5 132.333 90.5 217c0 90.667 -28.667 166.834 -86 228.501s-131 92.5 -221 92.5z
M479.001 133.998l-60 161h-52v-161h-107v446h133c40 0 67.333 -1.33301 82 -4c78 -14 117 -60.667 117 -140c0 -56 -25.667 -97 -77 -123l82 -179h-118zM421.001 488.998h-55v-108h56c21.333 0 36.333 4 45 12s13 22.333 13 43c0 35.333 -19.667 53 -59 53z" />
    <glyph glyph-name="macron" unicode="&#xaf;" horiz-adv-x="271" 
d="M-69 597v101h409v-101h-409z" />
    <glyph glyph-name="macron" unicode="&#x2c9;" horiz-adv-x="271" 
d="M-69 597v101h409v-101h-409z" />
    <glyph glyph-name="degree" unicode="&#xb0;" horiz-adv-x="354" 
d="M177 410c-47.333 0 -87.833 16.833 -121.5 50.5s-50.5 74.167 -50.5 121.5c0 48.667 16.667 89.667 50 123s74 50 122 50c48.667 0 89.5 -16.667 122.5 -50s49.5 -74.333 49.5 -123c0 -47.333 -16.833 -87.833 -50.5 -121.5s-74.167 -50.5 -121.5 -50.5zM177 653
c-20.667 0 -37.833 -6.66699 -51.5 -20s-20.5 -30.333 -20.5 -51c0 -20 7 -37 21 -51s31 -21 51 -21s37 7 51 21s21 31 21 51s-7 36.833 -21 50.5s-31 20.5 -51 20.5z" />
    <glyph glyph-name="plusminus" unicode="&#xb1;" horiz-adv-x="724" 
d="M445 375v-191h-166l-1 191h-186v130h187v184h166v-184h187v-130h-187zM92 0v132h540v-132h-540z" />
    <glyph glyph-name="twosuperior" unicode="&#xb2;" horiz-adv-x="375" 
d="M28 235v82l83 64c31.333 24 56 48.333 74 73c24 32.667 36 64 36 94c0 37.333 -14.333 56 -43 56c-32 0 -48 -20.333 -48 -61c0 -9.33301 1.33301 -19.666 4 -30.999l-110 6v4c0 110.667 49.667 166 149 166c47.333 0 85.833 -12.667 115.5 -38s44.5 -61.333 44.5 -108
c0 -46 -17.333 -88.333 -52 -127c-18.667 -20.667 -55 -51.334 -109 -92.001h164v-88h-308z" />
    <glyph glyph-name="threesuperior" unicode="&#xb3;" horiz-adv-x="375" 
d="M183 228c-107.333 0 -161.001 48.667 -161.001 146v16l107 8l-2 -20c0 -18 4.66699 -33.333 14 -46s22.666 -19 39.999 -19c16.667 0 30.334 5.66699 41.001 17s16 25.333 16 42c0 39.333 -27 59 -81 59v80l20 -2c33.333 0 50 16 50 48s-15.333 48 -46 48
c-28.667 0 -43 -21.667 -43 -65l-107 10c8 48.667 24.333 83.834 49 105.501s61.334 32.5 110.001 32.5c40.667 0 73.667 -9 99 -27c29.333 -20.667 44 -50.334 44 -89.001c0 -26.667 -5 -47.167 -15 -61.5s-27.333 -26.833 -52 -37.5
c54.667 -14.667 82 -49.334 82 -104.001c0 -45.333 -16.667 -80.666 -50 -105.999c-30 -23.333 -68.333 -35 -115 -35z" />
    <glyph glyph-name="acute" unicode="&#xb4;" horiz-adv-x="271" 
d="M110 586h-102l73 133h182z" />
    <glyph glyph-name="mu" unicode="&#xb5;" horiz-adv-x="587" 
d="M490 -12c-52.667 0 -88.335 26.001 -107.002 78.001c-17.333 -50 -47.666 -75 -90.999 -75c-39.333 0 -68.333 19.333 -87 58l3 -265h-153v737h153v-234c0 -52.667 4 -96.334 12 -131.001c6 -27.333 28.333 -41 67 -41c28 0 47.333 7.5 58 22.5s16.667 40.833 18 77.5
l3 92v214h153v-351c0 -36.667 10.333 -55 31 -55c6.66699 0 15.334 2.33301 26.001 7v-122c-24 -8 -52.667 -12 -86 -12z" />
    <glyph glyph-name="mu" unicode="&#x3bc;" horiz-adv-x="587" 
d="M490 -12c-52.667 0 -88.335 26.001 -107.002 78.001c-17.333 -50 -47.666 -75 -90.999 -75c-39.333 0 -68.333 19.333 -87 58l3 -265h-153v737h153v-234c0 -52.667 4 -96.334 12 -131.001c6 -27.333 28.333 -41 67 -41c28 0 47.333 7.5 58 22.5s16.667 40.833 18 77.5
l3 92v214h153v-351c0 -36.667 10.333 -55 31 -55c6.66699 0 15.334 2.33301 26.001 7v-122c-24 -8 -52.667 -12 -86 -12z" />
    <glyph glyph-name="paragraph" unicode="&#xb6;" horiz-adv-x="639" 
d="M511 623l0.000976562 -790.001h-88v790h-113v-790h-89v468c-32.667 8 -56.667 16.667 -72 26c-26.667 16.667 -47.334 41.334 -62.001 74.001c-14 30 -21 61.667 -21 95c0 94.667 38.333 158 115 190c32 13.333 74.333 20 127 20h239v-83h-36z" />
    <glyph glyph-name="periodcentered" unicode="&#xb7;" horiz-adv-x="235" 
d="M37 206v167h161v-167h-161z" />
    <glyph glyph-name="periodcentered" unicode="&#x2219;" horiz-adv-x="235" 
d="M37 206v167h161v-167h-161z" />
    <glyph glyph-name="cedilla" unicode="&#xb8;" horiz-adv-x="271" 
d="M137 -197c-35.333 0 -68.665 17.001 -99.998 51.001l28 23c18.667 -21.333 36.667 -32 54 -32c24 0 36 10.667 36 32c0 26.667 -19 40 -57 40c-3.33301 0 -7.83301 -0.666992 -13.5 -2s-9.83398 -2 -12.501 -2l-13 18l33 60h47l-22 -45c13.333 2 26.666 3 39.999 3
c51.333 0 77 -21.667 77 -65c0 -24.667 -9.83301 -44.334 -29.5 -59.001s-42.167 -22 -67.5 -22z" />
    <glyph glyph-name="onesuperior" unicode="&#xb9;" horiz-adv-x="375" 
d="M155 235v317c-26 -8 -61.667 -12 -107 -12v73c33.333 0 59 3.66699 77 11c22.667 9.33301 41 27 55 53h85v-442h-110z" />
    <glyph glyph-name="ordmasculine" unicode="&#xba;" horiz-adv-x="354" 
d="M175 423c-46 0 -81.667 13.167 -107 39.5s-38 62.5 -38 108.5c0 44.667 13 80 39 106s61.333 39 106 39s80.167 -13 106.5 -39s39.5 -61.333 39.5 -106c0 -45.333 -13 -81.333 -39 -108s-61.667 -40 -107 -40zM173 648c-39.333 0 -59 -26.667 -59 -80
c0 -51.333 20.667 -77 62 -77c40.667 0 61 26 61 78c0 52.667 -21.333 79 -64 79z" />
    <glyph glyph-name="guillemotright" unicode="&#xbb;" horiz-adv-x="417" 
d="M223 96v138l64 58l-64 57v136l159 -131v-123zM36 96v138l68 58l-68 57v136l159 -129v-125z" />
    <glyph glyph-name="onequarter" unicode="&#xbc;" horiz-adv-x="875" 
d="M799 98v-98h-106v98h-182v84l185 259h104v-265h58v-78h-59zM289 -42l-79 42l375 721l80 -42zM155 235v317c-26 -8 -61.667 -12 -107 -12v73c33.333 0 59 3.66699 77 11c22.667 9.33301 41 27 55 53h85v-442h-110zM693 326l-99 -150h99v150z" />
    <glyph glyph-name="onehalf" unicode="&#xbd;" horiz-adv-x="875" 
d="M528 0l-0.000976562 81.999c72.667 56.667 113.334 89.334 122.001 98.001c47.333 46 71 90 71 132c0 37.333 -14.333 56 -43 56c-32.667 0 -49 -20 -49 -60c0 -10 1.66699 -20.667 5 -32l-111 6c0 113.333 50 170 150 170c46.667 0 85 -12.667 115 -38s45 -61 45 -107
c0 -48 -17 -91 -51 -129c-16.667 -18.667 -53.667 -48.667 -111 -90h164v-88h-307zM264.999 -42.001l-79 42l375 721l80 -42zM154.999 234.999v317c-26 -8 -61.667 -12 -107 -12v73c33.333 0 59 3.66699 77 11c22.667 9.33301 41 27 55 53h85v-442h-110z" />
    <glyph glyph-name="threequarters" unicode="&#xbe;" horiz-adv-x="875" 
d="M799 98v-98h-106v98h-182v84l185 259h104v-265h58v-78h-59zM318 -42l-79 42l375 721l80 -42zM183 228c-107.333 0 -161.001 48.667 -161.001 146v16l107 8l-2 -20c0 -18 4.66699 -33.333 14 -46s22.666 -19 39.999 -19c16.667 0 30.334 5.66699 41.001 17
s16 25.333 16 42c0 39.333 -27 59 -81 59v80l20 -2c33.333 0 50 16 50 48s-15.333 48 -46 48c-28.667 0 -43 -21.667 -43 -65l-107 10c8 48.667 24.333 83.834 49 105.501s61.334 32.5 110.001 32.5c40.667 0 73.667 -9 99 -27c29.333 -20.667 44 -50.334 44 -89.001
c0 -26.667 -5 -47.167 -15 -61.5s-27.333 -26.833 -52 -37.5c54.667 -14.667 82 -49.334 82 -104.001c0 -45.333 -16.667 -80.666 -50 -105.999c-30 -23.333 -68.333 -35 -115 -35zM692.999 326l-99 -150h99v150z" />
    <glyph glyph-name="questiondown" unicode="&#xbf;" horiz-adv-x="604" 
d="M236 539v167h158v-167h-158zM506 94c-46.667 -70 -126.004 -104.998 -238.004 -104.998c-69.333 0 -125.666 13.333 -168.999 40c-53.333 32.667 -80 81.667 -80 147c0 43.333 12.667 79.666 38 108.999c14.667 17.333 45.334 42.666 92.001 75.999l75 54
c16.667 12 26.334 29 29.001 51h127c0 -46.667 -11.333 -81.667 -34 -105c-12.667 -12.667 -34.167 -29.334 -64.5 -50.001s-51.833 -38 -64.5 -52c-20 -21.333 -30 -43.666 -30 -66.999c0 -28 8.66699 -50 26 -66s40 -24 68 -24c35.333 0 64 11 86 33s33 50.667 33 86
l143 -46l-15 -40c-5.33301 -13.333 -12.666 -27 -21.999 -41z" />
    <glyph glyph-name="Agrave" unicode="&#xc0;" horiz-adv-x="708" 
d="M314 782l-146 116h184l63 -116h-101zM517 0l-35 113h-260l-35 -113h-188l262 706h184l260 -706h-188zM350 538l-87 -298h179z" />
    <glyph glyph-name="Aacute" unicode="&#xc1;" horiz-adv-x="708" 
d="M391 782h-96l61 115h180zM517 0l-35 113h-260l-35 -113h-188l262 706h184l260 -706h-188zM350 538l-87 -298h179z" />
    <glyph glyph-name="Acircumflex" unicode="&#xc2;" horiz-adv-x="708" 
d="M393 779l-40 51l-38 -51h-116l90 115h133l88 -115h-117zM517 0l-35 113h-260l-35 -113h-188l262 706h184l260 -706h-188zM350 538l-87 -298h179z" />
    <glyph glyph-name="Atilde" unicode="&#xc3;" horiz-adv-x="708" 
d="M441 769c-18 0 -45.502 7.83203 -82.502 23.499s-60.5 23.5 -70.5 23.5c-10.667 0 -19.5 -4.16699 -26.5 -12.5s-10.5 -18.166 -10.5 -29.499h-68c4 29.333 8.66699 50.666 14 63.999c7.33301 18 19.5 33 36.5 45s34.833 18 53.5 18c17.333 0 42.166 -7 74.499 -21
s54.5 -21 66.5 -21c16.667 0 30.334 13 41.001 39h69c-5.33301 -37.333 -10.666 -61.666 -15.999 -72.999c-7.33301 -15.333 -18.666 -28.5 -33.999 -39.5s-31 -16.5 -47 -16.5zM516.998 -0.000976562l-35 113h-260l-35 -113h-188l262 706h184l260 -706h-188z
M349.998 537.999l-87 -298h179z" />
    <glyph glyph-name="Adieresis" unicode="&#xc4;" horiz-adv-x="708" 
d="M381 778v117h161v-117h-161zM160 778v117h160v-117h-160zM517 0l-35 113h-260l-35 -113h-188l262 706h184l260 -706h-188zM350 538l-87 -298h179z" />
    <glyph glyph-name="Aring" unicode="&#xc5;" horiz-adv-x="708" 
d="M349 731c-26.667 0 -49.667 9.66699 -69 29s-29 42.333 -29 69s9.66699 49.667 29 69s42.333 29 69 29c27.333 0 50.5 -9.5 69.5 -28.5s28.5 -42.167 28.5 -69.5c0 -26.667 -9.66699 -49.667 -29 -69s-42.333 -29 -69 -29zM517 0l-35 113h-260l-35 -113h-188l262 706h184
l260 -706h-188zM350 869c-26 0 -39 -13.002 -39 -39.002s13 -39 39 -39c10.667 0 19.834 3.83301 27.501 11.5s11.5 16.834 11.5 27.501s-3.83301 19.834 -11.5 27.501s-16.834 11.5 -27.501 11.5zM350 537.998l-87 -298h179z" />
    <glyph glyph-name="AE" unicode="&#xc6;" horiz-adv-x="1125" 
d="M535 0v171h-247l-95 -171h-198l417 706h660v-134h-361v-131h337v-135h-336v-168h394v-138h-571zM535 617l-176 -316h176v316z" />
    <glyph glyph-name="Ccedilla" unicode="&#xc7;" horiz-adv-x="688" 
d="M628 87c-68 -72 -153.999 -108 -257.999 -108l-15 -33c13.333 2 26.333 3 39 3c50.667 0 76 -21.667 76 -65c0 -24 -9.83301 -43.5 -29.5 -58.5s-41.834 -22.5 -66.501 -22.5c-37.333 0 -70.333 17 -99 51l28 23c18 -21.333 35.667 -32 53 -32c24 0 36 10.667 36 32
c0 26.667 -19 40 -57 40c-3.33301 0 -7.83301 -0.666992 -13.5 -2s-9.83398 -2 -12.501 -2l-12 18l28 52c-63.333 12.667 -114.333 33 -153 61c-42 31.333 -74.667 75.5 -98 132.5s-35 113.833 -35 170.5c0 106.667 29.667 195.667 89 267c64 76 148.333 114 253 114
c132 0 231.333 -61 298 -183l-139 -70c-34 72 -84.333 108 -151 108c-58 0 -102.667 -24 -134 -72c-26.667 -40.667 -40 -91.667 -40 -153c0 -63.333 13 -115.666 39 -156.999c30.667 -49.333 75.667 -74 135 -74c36.667 0 67.334 9.33301 92.001 28
c20 15.333 40.333 40.666 61 75.999l140 -70c-17.333 -30 -35.333 -54.667 -54 -74z" />
    <glyph glyph-name="Egrave" unicode="&#xc8;" horiz-adv-x="646" 
d="M309 782l-146 116h183l64 -116h-101zM68 0v706h522v-136h-346v-129h323v-134h-323v-168h378v-139h-554z" />
    <glyph glyph-name="Eacute" unicode="&#xc9;" horiz-adv-x="646" 
d="M350 782h-97l61 115h180zM68 0v706h522v-136h-346v-129h323v-134h-323v-168h378v-139h-554z" />
    <glyph glyph-name="Ecircumflex" unicode="&#xca;" horiz-adv-x="646" 
d="M362 779l-40 51l-38 -51h-116l89 115h133l88 -115h-116zM68 0v706h522v-136h-346v-129h323v-134h-323v-168h378v-139h-554z" />
    <glyph glyph-name="Edieresis" unicode="&#xcb;" horiz-adv-x="646" 
d="M353 782v116h161v-116h-161zM131 781v117h160v-117h-160zM68 0v706h522v-136h-346v-129h323v-134h-323v-168h378v-139h-554z" />
    <glyph glyph-name="Igrave" unicode="&#xcc;" horiz-adv-x="313" 
d="M116 782l-146 116h184l63 -116h-101zM67 0v706h176v-706h-176z" />
    <glyph glyph-name="Iacute" unicode="&#xcd;" horiz-adv-x="313" 
d="M194 782h-97l61 115h180zM67 0v706h176v-706h-176z" />
    <glyph glyph-name="Icircumflex" unicode="&#xce;" horiz-adv-x="313" 
d="M195 779l-40 51l-38 -51h-116l90 115h133l88 -115h-117zM67 0v706h176v-706h-176z" />
    <glyph glyph-name="Idieresis" unicode="&#xcf;" horiz-adv-x="313" 
d="M187 782v116h160v-116h-160zM-36 781v117h161v-117h-161zM67 0v706h176v-706h-176z" />
    <glyph glyph-name="Eth" unicode="&#xd0;" horiz-adv-x="750" 
d="M566 0l0.000976562 65.002c-58 -54 -127.333 -81 -208 -81c-98.667 0 -177.334 36.333 -236.001 109c-54.667 66.667 -82 150.667 -82 252c0 74 13.667 140.333 41 199c31.333 66 77.333 114 138 144c56.667 28 113.334 42 170.001 42c124 0 227.333 -54.333 310 -163
l-134 -81c-42 66 -96.667 99 -164 99c-62.667 0 -110 -23 -142 -69c-28.667 -40.667 -43 -93.334 -43 -158.001c0 -154.667 61.667 -232 185 -232c25.333 0 50.666 5 75.999 15c29.333 12 48.833 28.167 58.5 48.5s16.167 43.166 19.5 68.499h-158v134h307v-392h-138z
M385.001 771.002c-28 0 -54.666 5.99902 -79.999 17.999c-28.667 14 -47.334 32.833 -56.001 56.5s-14.667 48.834 -18 75.501h101c0 -41.333 17.333 -62 52 -62c36.667 0 55 20.333 55 61h101c-1.33301 -8 -3.66602 -20 -6.99902 -36
c-6.66699 -35.333 -24.334 -63.333 -53.001 -84c-26 -19.333 -57.667 -29 -95 -29z" />
    <glyph glyph-name="Ntilde" unicode="&#xd1;" horiz-adv-x="729" 
d="M451 769c-18 0 -45.002 7.83496 -81.002 23.502s-60 23.5 -72 23.5c-17.333 0 -29.666 -14 -36.999 -42h-68c4 29.333 8.66699 50.666 14 63.999c7.33301 17.333 19.666 32.166 36.999 44.499s35.333 18.5 54 18.5c16.667 0 41.334 -7 74.001 -21s55 -21 67 -21
c20.667 0 34 13 40 39h69c-3.33301 -30 -6.66602 -50.333 -9.99902 -61c-6.66699 -20.667 -18.5 -37.167 -35.5 -49.5s-34.167 -18.5 -51.5 -18.5zM486.998 0.00195312l-132 223l-124 221l6 -444h-170v706h173l153 -259l106 -194l-8 453h169v-706h-173z" />
    <glyph glyph-name="Ograve" unicode="&#xd2;" horiz-adv-x="792" 
d="M361 782l-146 116h184l63 -116h-101zM512 -3c-37.333 -12 -77.001 -17.999 -119.001 -17.999c-108 0 -194.333 36.333 -259 109c-61.333 69.333 -92 158.666 -92 267.999c0 107.333 31.333 195.333 94 264c64.667 72 150 108 256 108c163.333 0 273 -76 329 -228
c18.667 -50.667 28 -101 28 -151c0 -79.333 -20.667 -151 -62 -215c-43.333 -67.333 -101.666 -113 -174.999 -137zM390.999 580.001c-58 0 -102.668 -23.333 -134.001 -70c-27.333 -40.667 -41 -91.334 -41 -152.001c0 -63.333 13.667 -115.666 41 -156.999
c32 -48.667 78 -73 138 -73c32.667 0 62.834 8.33301 90.501 25s48.167 39.667 61.5 69c16.667 36 25 78.667 25 128c0 64 -14 116.667 -42 158c-32 48 -78.333 72 -139 72z" />
    <glyph glyph-name="Oacute" unicode="&#xd3;" horiz-adv-x="792" 
d="M428 782h-97l61 115h180zM512 -3c-37.333 -12 -77.001 -17.999 -119.001 -17.999c-108 0 -194.333 36.333 -259 109c-61.333 69.333 -92 158.666 -92 267.999c0 107.333 31.333 195.333 94 264c64.667 72 150 108 256 108c163.333 0 273 -76 329 -228
c18.667 -50.667 28 -101 28 -151c0 -79.333 -20.667 -151 -62 -215c-43.333 -67.333 -101.666 -113 -174.999 -137zM390.999 580.001c-58 0 -102.668 -23.333 -134.001 -70c-27.333 -40.667 -41 -91.334 -41 -152.001c0 -63.333 13.667 -115.666 41 -156.999
c32 -48.667 78 -73 138 -73c32.667 0 62.834 8.33301 90.501 25s48.167 39.667 61.5 69c16.667 36 25 78.667 25 128c0 64 -14 116.667 -42 158c-32 48 -78.333 72 -139 72z" />
    <glyph glyph-name="Ocircumflex" unicode="&#xd4;" horiz-adv-x="792" 
d="M435 779l-40 51l-39 -51h-115l89 115h133l88 -115h-116zM512 -3c-37.333 -12 -77.001 -17.999 -119.001 -17.999c-108 0 -194.333 36.333 -259 109c-61.333 69.333 -92 158.666 -92 267.999c0 107.333 31.333 195.333 94 264c64.667 72 150 108 256 108
c163.333 0 273 -76 329 -228c18.667 -50.667 28 -101 28 -151c0 -79.333 -20.667 -151 -62 -215c-43.333 -67.333 -101.666 -113 -174.999 -137zM390.999 580.001c-58 0 -102.668 -23.333 -134.001 -70c-27.333 -40.667 -41 -91.334 -41 -152.001
c0 -63.333 13.667 -115.666 41 -156.999c32 -48.667 78 -73 138 -73c32.667 0 62.834 8.33301 90.501 25s48.167 39.667 61.5 69c16.667 36 25 78.667 25 128c0 64 -14 116.667 -42 158c-32 48 -78.333 72 -139 72z" />
    <glyph glyph-name="Otilde" unicode="&#xd5;" horiz-adv-x="792" 
d="M482 769c-18 0 -45 7.83203 -81 23.499s-60 23.5 -72 23.5c-17.333 0 -29.666 -14 -36.999 -42h-67c4 30 8.66699 51.333 14 64c7.33301 18 19.333 33 36 45s34.667 18 54 18c16.667 0 41.667 -7 75 -21s55.333 -21 66 -21c20.667 0 34 13 40 39h69
c-3.33301 -28 -7 -48 -11 -60c-7.33301 -21.333 -18.833 -38.166 -34.5 -50.499s-32.834 -18.5 -51.501 -18.5zM512 -3.00098c-37.333 -12 -77.001 -17.999 -119.001 -17.999c-108 0 -194.333 36.333 -259 109c-61.333 69.333 -92 158.666 -92 267.999
c0 107.333 31.333 195.333 94 264c64.667 72 150 108 256 108c163.333 0 273 -76 329 -228c18.667 -50.667 28 -101 28 -151c0 -79.333 -20.667 -151 -62 -215c-43.333 -67.333 -101.666 -113 -174.999 -137zM390.999 580c-58 0 -102.668 -23.333 -134.001 -70
c-27.333 -40.667 -41 -91.334 -41 -152.001c0 -63.333 13.667 -115.666 41 -156.999c32 -48.667 78 -73 138 -73c32.667 0 62.834 8.33301 90.501 25s48.167 39.667 61.5 69c16.667 36 25 78.667 25 128c0 64 -14 116.667 -42 158c-32 48 -78.333 72 -139 72z" />
    <glyph glyph-name="Odieresis" unicode="&#xd6;" horiz-adv-x="792" 
d="M426 780v116h162v-116h-162zM205 780v116h160v-116h-160zM512 -3c-37.333 -12 -77.001 -17.999 -119.001 -17.999c-108 0 -194.333 36.333 -259 109c-61.333 69.333 -92 158.666 -92 267.999c0 107.333 31.333 195.333 94 264c64.667 72 150 108 256 108
c163.333 0 273 -76 329 -228c18.667 -50.667 28 -101 28 -151c0 -79.333 -20.667 -151 -62 -215c-43.333 -67.333 -101.666 -113 -174.999 -137zM390.999 580.001c-58 0 -102.668 -23.333 -134.001 -70c-27.333 -40.667 -41 -91.334 -41 -152.001
c0 -63.333 13.667 -115.666 41 -156.999c32 -48.667 78 -73 138 -73c32.667 0 62.834 8.33301 90.501 25s48.167 39.667 61.5 69c16.667 36 25 78.667 25 128c0 64 -14 116.667 -42 158c-32 48 -78.333 72 -139 72z" />
    <glyph glyph-name="multiply" unicode="&#xd7;" horiz-adv-x="724" 
d="M502 78l-148 141l-129 -135l-94 90l129 135l-146 139l115 120l145 -139l129 136l95 -90l-130 -135l148 -142z" />
    <glyph glyph-name="Oslash" unicode="&#xd8;" horiz-adv-x="771" 
d="M678 563c35.333 -62 53 -131 53 -207c0 -124 -37.667 -219.667 -113 -287c-66.667 -59.333 -144.667 -89 -234 -89c-48.667 0 -92 8.33301 -130 25c-33.333 14.667 -70 39.334 -110 74.001l-93 -85l-54 60l97 88c-37.333 67.333 -56 138.333 -56 213
c0 65.333 16.667 131.333 50 198c38 75.333 85 122.666 141 141.999c61.333 21.333 116 32 164 32c88 0 166.667 -33.333 236 -100l89 81l54 -59zM389 586c-59.333 0 -105.334 -24.334 -138.001 -73.001c-28 -41.333 -42 -93.333 -42 -156
c0 -27.333 3.66699 -60.666 11 -99.999l293 266c-35.333 42 -76.666 63 -123.999 63zM549.999 446.999l-290.001 -264c34.667 -38.667 79.334 -58 134.001 -58s98 24 130 72c27.333 42 41 91.667 41 149c0 26 -5 59.667 -15 101z" />
    <glyph glyph-name="Ugrave" unicode="&#xd9;" horiz-adv-x="729" 
d="M335 782l-146 116h184l63 -116h-101zM644 154c-22 -55.333 -60.333 -98 -115 -128c-50 -28 -106.333 -42 -169 -42c-51.333 0 -101.333 10.667 -150 32c-56 24.667 -93.667 57.667 -113 99c-23.333 50.667 -35 109 -35 175v416h178v-440c0 -42 5.33301 -72.333 16 -91
c17.333 -30 54.666 -45 111.999 -45c44.667 0 76.334 12 95.001 36c16.667 21.333 25 55 25 101v439h177v-394c0 -70 -7 -122.667 -21 -158z" />
    <glyph glyph-name="Uacute" unicode="&#xda;" horiz-adv-x="729" 
d="M391 782h-96l61 115h180zM644 154c-22 -55.333 -60.333 -98 -115 -128c-50 -28 -106.333 -42 -169 -42c-51.333 0 -101.333 10.667 -150 32c-56 24.667 -93.667 57.667 -113 99c-23.333 50.667 -35 109 -35 175v416h178v-440c0 -42 5.33301 -72.333 16 -91
c17.333 -30 54.666 -45 111.999 -45c44.667 0 76.334 12 95.001 36c16.667 21.333 25 55 25 101v439h177v-394c0 -70 -7 -122.667 -21 -158z" />
    <glyph glyph-name="Ucircumflex" unicode="&#xdb;" horiz-adv-x="729" 
d="M403 779l-39 51l-39 -51h-115l89 115h133l88 -115h-117zM644 154c-22 -55.333 -60.333 -98 -115 -128c-50 -28 -106.333 -42 -169 -42c-51.333 0 -101.333 10.667 -150 32c-56 24.667 -93.667 57.667 -113 99c-23.333 50.667 -35 109 -35 175v416h178v-440
c0 -42 5.33301 -72.333 16 -91c17.333 -30 54.666 -45 111.999 -45c44.667 0 76.334 12 95.001 36c16.667 21.333 25 55 25 101v439h177v-394c0 -70 -7 -122.667 -21 -158z" />
    <glyph glyph-name="Udieresis" unicode="&#xdc;" horiz-adv-x="729" 
d="M394 780v117h161v-117h-161zM172 780v117h161v-117h-161zM644 154c-22 -55.333 -60.333 -98 -115 -128c-50 -28 -106.333 -42 -169 -42c-51.333 0 -101.333 10.667 -150 32c-56 24.667 -93.667 57.667 -113 99c-23.333 50.667 -35 109 -35 175v416h178v-440
c0 -42 5.33301 -72.333 16 -91c17.333 -30 54.666 -45 111.999 -45c44.667 0 76.334 12 95.001 36c16.667 21.333 25 55 25 101v439h177v-394c0 -70 -7 -122.667 -21 -158z" />
    <glyph glyph-name="Yacute" unicode="&#xdd;" horiz-adv-x="313" 
d="M67 0v706h176v-706h-176zM79 787v119h153v-119h-153z" />
    <glyph glyph-name="Thorn" unicode="&#xde;" horiz-adv-x="688" 
d="M331 -16c-132.667 0 -240.001 47.999 -322.001 143.999l134 85c50 -60 118 -90 204 -90c30 0 57.333 6 82 18c32 15.333 48 36 48 62c0 30 -13 49 -39 57c-7.33301 2 -46.333 9 -117 21l-90 15c-53.333 8.66699 -96.333 29 -129 61c-36 34.667 -54 78 -54 130
c0 78.667 28.667 138.667 86 180c50.667 37.333 116.667 56 198 56c110 0 214 -44.333 312 -133l-129 -93c-62 58 -123.667 87 -185 87c-26.667 0 -50 -5.66699 -70 -17c-24 -13.333 -36 -32.333 -36 -57c0 -27.333 14.667 -45.666 44 -54.999
c18.667 -6 41.667 -10.667 69 -14l71 -9c47.333 -8 83.333 -16.333 108 -25c90.667 -30.667 136 -89.667 136 -177c0 -48 -13.667 -91.667 -41 -131c-53.333 -76.667 -146.666 -115 -279.999 -115zM359.999 -11.001l-14.998 -33c13.333 2 26.333 3 39 3
c50.667 0 76 -21.667 76 -65c0 -24 -9.83301 -43.5 -29.5 -58.5s-41.834 -22.5 -66.501 -22.5c-37.333 0 -70.333 17 -99 51l28 23c18 -21.333 35.667 -32 53 -32c24 0 36 10.667 36 32c0 26.667 -19 40 -57 40c-3.33301 0 -7.83301 -0.666992 -13.5 -2
s-9.83398 -2 -12.501 -2l-12 18l28 52z" />
    <glyph glyph-name="germandbls" unicode="&#xdf;" horiz-adv-x="604" 
d="M383 -11c-37.333 0 -70 5.66895 -98 17.002v114c20 -10 37 -15 51 -15c57.333 0 86 39.333 86 118c0 26 -3.66699 50.333 -11 73c-9.33301 30.667 -23.166 49.667 -41.499 57s-43.833 11 -76.5 11h-20v92c40.667 0 67.667 3.33301 81 10c20.667 10.667 31 33.667 31 69
c0 55.333 -26.667 83 -80 83c-19.333 0 -36.5 -5.83301 -51.5 -17.5s-24.333 -26.334 -28 -44.001s-5.5 -35.5 -5.5 -53.5v-503h-153v469c0 168 78 252 234 252c64.667 0 117 -14 157 -42c46 -32 69 -79.333 69 -142c0 -50.667 -15.333 -85.334 -46 -104.001
c-14 -8.66699 -29 -14.667 -45 -18c90.667 0 136 -63 136 -189c0 -67.333 -14.333 -122 -43 -164c-32.667 -48.667 -81.334 -73 -146.001 -73z" />
    <glyph glyph-name="agrave" unicode="&#xe0;" horiz-adv-x="583" 
d="M277 587l-157 133h184l75 -133h-102zM375 0v47c-54 -40.667 -107.333 -61 -160 -61c-30.667 0 -60 6.33301 -88 19c-32 14.667 -53 34.667 -63 60c-13.333 34 -20 60.667 -20 80c0 32 9.66699 61.333 29 88s44 46.667 74 60c36.667 16 107.667 32.667 213 50v28
c0 42.667 -19.667 64 -59 64c-46 0 -73 -20.333 -81 -61h-154c0 108 75.333 162 226 162c60 0 108.667 -10 146 -30c48.667 -25.333 73 -65.333 73 -120v-317c0 -30.667 5 -53.667 15 -69h-151zM261 217c-44 -14.667 -66 -36.333 -66 -65c0 -15.333 5.66699 -28 17 -38
s25 -15 41 -15c38 0 66.333 16.667 85 50c14.667 26 22 59.667 22 101z" />
    <glyph glyph-name="aacute" unicode="&#xe1;" horiz-adv-x="583" 
d="M345 586h-102l73 133h183zM375 0v47c-54 -40.667 -107.333 -61 -160 -61c-30.667 0 -60 6.33301 -88 19c-32 14.667 -53 34.667 -63 60c-13.333 34 -20 60.667 -20 80c0 32 9.66699 61.333 29 88s44 46.667 74 60c36.667 16 107.667 32.667 213 50v28
c0 42.667 -19.667 64 -59 64c-46 0 -73 -20.333 -81 -61h-154c0 108 75.333 162 226 162c60 0 108.667 -10 146 -30c48.667 -25.333 73 -65.333 73 -120v-317c0 -30.667 5 -53.667 15 -69h-151zM261 217c-44 -14.667 -66 -36.333 -66 -65c0 -15.333 5.66699 -28 17 -38
s25 -15 41 -15c38 0 66.333 16.667 85 50c14.667 26 22 59.667 22 101z" />
    <glyph glyph-name="acircumflex" unicode="&#xe2;" horiz-adv-x="583" 
d="M341 589l-48 62l-47 -63h-117l101 132h126l103 -131h-118zM375 0v47c-54 -40.667 -107.333 -61 -160 -61c-30.667 0 -60 6.33301 -88 19c-32 14.667 -53 34.667 -63 60c-13.333 34 -20 60.667 -20 80c0 32 9.66699 61.333 29 88s44 46.667 74 60
c36.667 16 107.667 32.667 213 50v28c0 42.667 -19.667 64 -59 64c-46 0 -73 -20.333 -81 -61h-154c0 108 75.333 162 226 162c60 0 108.667 -10 146 -30c48.667 -25.333 73 -65.333 73 -120v-317c0 -30.667 5 -53.667 15 -69h-151zM261 217
c-44 -14.667 -66 -36.333 -66 -65c0 -15.333 5.66699 -28 17 -38s25 -15 41 -15c38 0 66.333 16.667 85 50c14.667 26 22 59.667 22 101z" />
    <glyph glyph-name="atilde" unicode="&#xe3;" horiz-adv-x="583" 
d="M372 582c-17.333 0 -43.499 7.66699 -78.499 23s-58.833 23 -71.5 23c-26 0 -39 -15.333 -39 -46h-72c4.66699 42 12.334 73.333 23.001 94c16 32 41.667 48 77 48c16.667 0 42.167 -7.5 76.5 -22.5s57.5 -22.5 69.5 -22.5c22.667 0 35.667 13.667 39 41h70
c-4.66699 -44 -11.334 -74.667 -20.001 -92c-14.667 -30.667 -39.334 -46 -74.001 -46zM375.001 0v47c-54 -40.667 -107.333 -61 -160 -61c-30.667 0 -60 6.33301 -88 19c-32 14.667 -53 34.667 -63 60c-13.333 34 -20 60.667 -20 80c0 32 9.66699 61.333 29 88
s44 46.667 74 60c36.667 16 107.667 32.667 213 50v28c0 42.667 -19.667 64 -59 64c-46 0 -73 -20.333 -81 -61h-154c0 108 75.333 162 226 162c60 0 108.667 -10 146 -30c48.667 -25.333 73 -65.333 73 -120v-317c0 -30.667 5 -53.667 15 -69h-151zM261.001 217
c-44 -14.667 -66 -36.333 -66 -65c0 -15.333 5.66699 -28 17 -38s25 -15 41 -15c38 0 66.333 16.667 85 50c14.667 26 22 59.667 22 101z" />
    <glyph glyph-name="adieresis" unicode="&#xe4;" horiz-adv-x="583" 
d="M353 596v124h157v-124h-157zM102 596v124h157v-124h-157zM375 0v47c-54 -40.667 -107.333 -61 -160 -61c-30.667 0 -60 6.33301 -88 19c-32 14.667 -53 34.667 -63 60c-13.333 34 -20 60.667 -20 80c0 32 9.66699 61.333 29 88s44 46.667 74 60
c36.667 16 107.667 32.667 213 50v28c0 42.667 -19.667 64 -59 64c-46 0 -73 -20.333 -81 -61h-154c0 108 75.333 162 226 162c60 0 108.667 -10 146 -30c48.667 -25.333 73 -65.333 73 -120v-317c0 -30.667 5 -53.667 15 -69h-151zM261 217
c-44 -14.667 -66 -36.333 -66 -65c0 -15.333 5.66699 -28 17 -38s25 -15 41 -15c38 0 66.333 16.667 85 50c14.667 26 22 59.667 22 101z" />
    <glyph glyph-name="aring" unicode="&#xe5;" horiz-adv-x="583" 
d="M306 554c-28 0 -51.333 9.33203 -70 27.999s-28 42 -28 70s9.33301 51.5 28 70.5s42 28.5 70 28.5c27.333 0 50.666 -9.66699 69.999 -29s29 -42.666 29 -69.999s-9.66699 -50.5 -29 -69.5s-42.666 -28.5 -69.999 -28.5zM375 -0.000976562v47
c-54 -40.667 -107.333 -61 -160 -61c-30.667 0 -60 6.33301 -88 19c-32 14.667 -53 34.667 -63 60c-13.333 34 -20 60.667 -20 80c0 32 9.66699 61.333 29 88s44 46.667 74 60c36.667 16 107.667 32.667 213 50v28c0 42.667 -19.667 64 -59 64c-46 0 -73 -20.333 -81 -61
h-154c0 108 75.333 162 226 162c60 0 108.667 -10 146 -30c48.667 -25.333 73 -65.333 73 -120v-317c0 -30.667 5 -53.667 15 -69h-151zM306 691.999c-26 0 -39 -13.333 -39 -40c0 -26 13 -39 39 -39c26.667 0 40 13 40 39c0 10.667 -4 20 -12 28s-17.333 12 -28 12z
M261 216.999c-44 -14.667 -66 -36.333 -66 -65c0 -15.333 5.66699 -28 17 -38s25 -15 41 -15c38 0 66.333 16.667 85 50c14.667 26 22 59.667 22 101z" />
    <glyph glyph-name="ae" unicode="&#xe6;" horiz-adv-x="875" 
d="M813 76c-51.333 -58.667 -118.328 -87.998 -200.995 -87.998c-76.667 0 -139.334 26.333 -188.001 79c-64.667 -53.333 -133 -80 -205 -80c-54.667 0 -100 14.667 -136 44c-38.667 31.333 -58 73.666 -58 126.999c0 27.333 7.16699 53.5 21.5 78.5s33.5 44.5 57.5 58.5
c34 20 87 34 159 42l52 6c11.333 1.33301 23.333 4 36 8v5c0 50.667 -25.667 76 -77 76c-47.333 0 -71 -19 -71 -57h-157c0 70.667 31 118.334 93 143.001c33.333 13.333 69.666 20 108.999 20c65.333 0 128 -18.333 188 -55c51.333 37.333 104.666 56 159.999 56
c57.333 0 107.833 -15.333 151.5 -46s72.5 -73.334 86.5 -128.001c12.667 -48.667 19 -91.334 19 -128.001h-349c3.33301 -28 7.66602 -48.333 12.999 -61c8 -18 21.667 -33.333 41 -46c22 -14 43 -21 63 -21c26.667 0 49.667 8.33301 69 25c14 12 29 32.333 45 61l119 -60
c-14.667 -25.333 -28.334 -45 -41.001 -59zM600.005 429.002c-26.667 0 -48.5 -9.33301 -65.5 -28s-27.167 -41.667 -30.5 -69h189c-10 64.667 -41 97 -93 97zM349.005 259.002c-12.667 -6 -35.167 -12.502 -67.5 -19.502s-55.833 -14.833 -70.5 -23.5
c-22.667 -13.333 -34 -31.666 -34 -54.999c0 -38 22.333 -57 67 -57c35.333 0 63 14.667 83 44c17.333 26.667 25 58.334 23 95.001z" />
    <glyph glyph-name="ccedilla" unicode="&#xe7;" horiz-adv-x="500" 
d="M279 -16l-17.9961 -38.0039c13.333 2 26.666 3 39.999 3c21.333 0 39.166 -5.66699 53.499 -17s21.5 -27.333 21.5 -48c0 -23.333 -10 -42.666 -30 -57.999s-42 -23 -66 -23c-36 0 -69 17 -99 51l28 23c18.667 -21.333 36.667 -32 54 -32
c9.33301 0 17.5 3.16699 24.5 9.5s10.5 13.833 10.5 22.5c0 26.667 -19 40 -57 40c-3.33301 0 -7.83301 -0.666992 -13.5 -2s-9.83398 -2 -12.501 -2l-12 18l32 58c-66 13.333 -116.667 45 -152 95c-33.333 46.667 -50 104.334 -50 173.001c0 83.333 23 150.833 69 202.5
s110.333 77.5 193 77.5c98.667 0 173 -42 223 -126l-114 -65c-22.667 48.667 -56.334 73 -101.001 73c-36.667 0 -65.334 -17.333 -86.001 -52c-17.333 -29.333 -26 -63.666 -26 -102.999c0 -41.333 8.66699 -76.666 26 -105.999c20.667 -35.333 50.334 -53 89.001 -53
c50 0 84 26 102 78l116 -60c-58 -92.667 -139.667 -139 -245 -139z" />
    <glyph glyph-name="egrave" unicode="&#xe8;" horiz-adv-x="583" 
d="M256 587l-157 133h184l75 -133h-102zM189 230l-0.000976562 -6.99902c0 -36 10.833 -65.667 32.5 -89s50.5 -35 86.5 -35c33.333 0 60.333 8 81 24c17.333 14 34.333 37 51 69l116 -60c-25.333 -36.667 -47.666 -63.667 -66.999 -81c-24.667 -22.667 -55 -40 -91 -52
s-70 -18 -102 -18c-82 0 -146.5 24.5 -193.5 73.5s-70.5 114.5 -70.5 196.5c0 86 23 154.667 69 206c48 54 114.333 81 199 81c57.333 0 111 -16 161 -48c36 -22.667 62.667 -61.334 80 -116.001c14 -43.333 21 -91.333 21 -144h-373zM298.999 428.001
c-59.333 0 -95.667 -34.333 -109 -103h213c-9.33301 68.667 -44 103 -104 103z" />
    <glyph glyph-name="eacute" unicode="&#xe9;" horiz-adv-x="583" 
d="M329 586h-101l73 133h182zM189 230l-0.000976562 -6.99902c0 -36 10.833 -65.667 32.5 -89s50.5 -35 86.5 -35c33.333 0 60.333 8 81 24c17.333 14 34.333 37 51 69l116 -60c-25.333 -36.667 -47.666 -63.667 -66.999 -81c-24.667 -22.667 -55 -40 -91 -52
s-70 -18 -102 -18c-82 0 -146.5 24.5 -193.5 73.5s-70.5 114.5 -70.5 196.5c0 86 23 154.667 69 206c48 54 114.333 81 199 81c57.333 0 111 -16 161 -48c36 -22.667 62.667 -61.334 80 -116.001c14 -43.333 21 -91.333 21 -144h-373zM298.999 428.001
c-59.333 0 -95.667 -34.333 -109 -103h213c-9.33301 68.667 -44 103 -104 103z" />
    <glyph glyph-name="ecircumflex" unicode="&#xea;" horiz-adv-x="583" 
d="M341 589l-48 62l-47 -63h-117l101 132h126l103 -131h-118zM189 230l-0.000976562 -6.99902c0 -36 10.833 -65.667 32.5 -89s50.5 -35 86.5 -35c33.333 0 60.333 8 81 24c17.333 14 34.333 37 51 69l116 -60c-25.333 -36.667 -47.666 -63.667 -66.999 -81
c-24.667 -22.667 -55 -40 -91 -52s-70 -18 -102 -18c-82 0 -146.5 24.5 -193.5 73.5s-70.5 114.5 -70.5 196.5c0 86 23 154.667 69 206c48 54 114.333 81 199 81c57.333 0 111 -16 161 -48c36 -22.667 62.667 -61.334 80 -116.001c14 -43.333 21 -91.333 21 -144h-373z
M298.999 428.001c-59.333 0 -95.667 -34.333 -109 -103h213c-9.33301 68.667 -44 103 -104 103z" />
    <glyph glyph-name="edieresis" unicode="&#xeb;" horiz-adv-x="583" 
d="M338 597v124h158v-124h-158zM87 597v124h157v-124h-157zM189 230l-0.000976562 -6.99902c0 -36 10.833 -65.667 32.5 -89s50.5 -35 86.5 -35c33.333 0 60.333 8 81 24c17.333 14 34.333 37 51 69l116 -60c-25.333 -36.667 -47.666 -63.667 -66.999 -81
c-24.667 -22.667 -55 -40 -91 -52s-70 -18 -102 -18c-82 0 -146.5 24.5 -193.5 73.5s-70.5 114.5 -70.5 196.5c0 86 23 154.667 69 206c48 54 114.333 81 199 81c57.333 0 111 -16 161 -48c36 -22.667 62.667 -61.334 80 -116.001c14 -43.333 21 -91.333 21 -144h-373z
M298.999 428.001c-59.333 0 -95.667 -34.333 -109 -103h213c-9.33301 68.667 -44 103 -104 103z" />
    <glyph glyph-name="igrave" unicode="&#xec;" 
d="M111 587l-158 133h184l75 -133h-101zM69 0v522h152v-522h-152z" />
    <glyph glyph-name="iacute" unicode="&#xed;" 
d="M184 586h-102l73 133h182zM69 0v522h152v-522h-152z" />
    <glyph glyph-name="icircumflex" unicode="&#xee;" 
d="M195 589l-48 62l-46 -63h-118l101 132h127l103 -131h-119zM69 0v522h152v-522h-152z" />
    <glyph glyph-name="idieresis" unicode="&#xef;" 
d="M193 597v124h157v-124h-157zM-59 597v124h157v-124h-157zM69 0v522h152v-522h-152z" />
    <glyph glyph-name="eth" unicode="&#xf0;" horiz-adv-x="604" 
d="M520 -79c-34 -72 -114.333 -108 -241 -108c-36 0 -71 4.33301 -105 13c-42 10.667 -72.667 26.334 -92 47.001c-28.667 31.333 -43 73.666 -43 126.999h159c0 -56.667 31.333 -85 94 -85c35.333 0 60 8.16699 74 24.5s20.667 42.5 20 78.5l-1 51
c-46 -29.333 -92 -44 -138 -44c-70.667 0 -125 24.667 -163 74c-35.333 45.333 -53 104 -53 176c0 73.333 18.333 133.333 55 180c39.333 50.667 95 76 167 76c54.667 0 101 -19 139 -57v49h145v-502c0 -42.667 -5.66699 -76 -17 -100zM286 416c-64 0 -96 -47.333 -96 -142
c0 -88.667 32.667 -133 98 -133c64 0 96 46 96 138c0 42 -5.66699 73.667 -17 95c-15.333 28 -42.333 42 -81 42zM295 571c-28 0 -54.666 5.99902 -79.999 17.999c-28.667 14 -47.334 32.833 -56.001 56.5s-14.667 48.834 -18 75.501h101c0 -41.333 17.333 -62 52 -62
c36.667 0 55 20.333 55 61h101c-1.33301 -8 -3.66602 -20 -6.99902 -36c-6.66699 -35.333 -24.334 -63.333 -53.001 -84c-26 -19.333 -57.667 -29 -95 -29z" />
    <glyph glyph-name="ntilde" unicode="&#xf1;" horiz-adv-x="604" 
d="M383 582c-17.333 0 -43.9971 7.66797 -79.9971 23.001s-59.667 23 -71 23c-19.333 0 -32.333 -15.333 -39 -46h-71c4.66699 43.333 12 75 22 95c16 31.333 41.667 47 77 47c17.333 0 43.166 -7.5 77.499 -22.5s57.166 -22.5 68.499 -22.5
c23.333 0 36.666 13.667 39.999 41h69c-5.33301 -42.667 -12.333 -73.334 -21 -92.001c-14 -30.667 -38 -46 -72 -46zM381.003 0.000976562l0.000976562 295c0 40.667 -3 68 -9 82c-10 23.333 -32 35 -66 35c-36.667 0 -60.667 -13.333 -72 -40
c-6.66699 -16 -10 -46 -10 -90v-282h-154v521h156v-45c35.333 39.333 84.333 59 147 59c41.333 0 77.666 -10 108.999 -30c35.333 -22.667 53 -72 53 -148v-357h-154z" />
    <glyph glyph-name="ograve" unicode="&#xf2;" horiz-adv-x="625" 
d="M277 587l-157 133h184l75 -133h-102zM575 157c-40 -115.333 -127.332 -172.999 -261.999 -172.999c-86 0 -154.333 24.667 -205 74s-76 117 -76 203c0 85.333 24.667 152.833 74 202.5s116.666 74.5 201.999 74.5c54 0 106.333 -11.333 157 -34
c40.667 -18 72.667 -52 96 -102c21.333 -44.667 32 -91.334 32 -140.001c0 -35.333 -6 -70.333 -18 -105zM316.001 416.001h-12.999c-48.667 0 -82.334 -24 -101.001 -72c-10 -25.333 -15 -52.333 -15 -81c0 -44 9.66699 -80 29 -108c22 -32 54.333 -48 97 -48
c40.667 0 72 15 94 45c20 27.333 30 62 30 104c0 106.667 -40.333 160 -121 160z" />
    <glyph glyph-name="oacute" unicode="&#xf3;" horiz-adv-x="625" 
d="M350 586h-102l73 133h183zM575 157c-40 -115.333 -127.332 -172.999 -261.999 -172.999c-86 0 -154.333 24.667 -205 74s-76 117 -76 203c0 85.333 24.667 152.833 74 202.5s116.666 74.5 201.999 74.5c54 0 106.333 -11.333 157 -34c40.667 -18 72.667 -52 96 -102
c21.333 -44.667 32 -91.334 32 -140.001c0 -35.333 -6 -70.333 -18 -105zM316.001 416.001h-12.999c-48.667 0 -82.334 -24 -101.001 -72c-10 -25.333 -15 -52.333 -15 -81c0 -44 9.66699 -80 29 -108c22 -32 54.333 -48 97 -48c40.667 0 72 15 94 45
c20 27.333 30 62 30 104c0 106.667 -40.333 160 -121 160z" />
    <glyph glyph-name="ocircumflex" unicode="&#xf4;" horiz-adv-x="625" 
d="M362 589l-48 62l-47 -63h-118l102 132h126l103 -131h-118zM575 157c-40 -115.333 -127.332 -172.999 -261.999 -172.999c-86 0 -154.333 24.667 -205 74s-76 117 -76 203c0 85.333 24.667 152.833 74 202.5s116.666 74.5 201.999 74.5c54 0 106.333 -11.333 157 -34
c40.667 -18 72.667 -52 96 -102c21.333 -44.667 32 -91.334 32 -140.001c0 -35.333 -6 -70.333 -18 -105zM316.001 416.001h-12.999c-48.667 0 -82.334 -24 -101.001 -72c-10 -25.333 -15 -52.333 -15 -81c0 -44 9.66699 -80 29 -108c22 -32 54.333 -48 97 -48
c40.667 0 72 15 94 45c20 27.333 30 62 30 104c0 106.667 -40.333 160 -121 160z" />
    <glyph glyph-name="otilde" unicode="&#xf5;" horiz-adv-x="625" 
d="M393 582c-17.333 0 -43.501 7.66699 -78.501 23s-58.833 23 -71.5 23c-26 0 -39 -15.333 -39 -46h-72c4.66699 42 12.334 73.333 23.001 94c16 32 41.667 48 77 48c16.667 0 42.167 -7.5 76.5 -22.5s57.5 -22.5 69.5 -22.5c22.667 0 35.667 13.667 39 41h69
c-4 -42 -10.667 -72.667 -20 -92c-14.667 -30.667 -39 -46 -73 -46zM574.999 157c-40 -115.333 -127.332 -172.999 -261.999 -172.999c-86 0 -154.333 24.667 -205 74s-76 117 -76 203c0 85.333 24.667 152.833 74 202.5s116.666 74.5 201.999 74.5
c54 0 106.333 -11.333 157 -34c40.667 -18 72.667 -52 96 -102c21.333 -44.667 32 -91.334 32 -140.001c0 -35.333 -6 -70.333 -18 -105zM316 416.001h-12.999c-48.667 0 -82.334 -24 -101.001 -72c-10 -25.333 -15 -52.333 -15 -81c0 -44 9.66699 -80 29 -108
c22 -32 54.333 -48 97 -48c40.667 0 72 15 94 45c20 27.333 30 62 30 104c0 106.667 -40.333 160 -121 160z" />
    <glyph glyph-name="odieresis" unicode="&#xf6;" horiz-adv-x="625" 
d="M361 595v124h158v-124h-158zM110 595v124h157v-124h-157zM575 157c-40 -115.333 -127.332 -172.999 -261.999 -172.999c-86 0 -154.333 24.667 -205 74s-76 117 -76 203c0 85.333 24.667 152.833 74 202.5s116.666 74.5 201.999 74.5c54 0 106.333 -11.333 157 -34
c40.667 -18 72.667 -52 96 -102c21.333 -44.667 32 -91.334 32 -140.001c0 -35.333 -6 -70.333 -18 -105zM316.001 416.001h-12.999c-48.667 0 -82.334 -24 -101.001 -72c-10 -25.333 -15 -52.333 -15 -81c0 -44 9.66699 -80 29 -108c22 -32 54.333 -48 97 -48
c40.667 0 72 15 94 45c20 27.333 30 62 30 104c0 106.667 -40.333 160 -121 160z" />
    <glyph glyph-name="divide" unicode="&#xf7;" horiz-adv-x="724" 
d="M286 446v156h151v-156h-151zM79 254v139h565v-139h-565zM286 45v155h150v-155h-150z" />
    <glyph glyph-name="oslash" unicode="&#xf8;" horiz-adv-x="625" 
d="M537 428c36.667 -52 55 -109.667 55 -173c0 -81.333 -26.167 -146.5 -78.5 -195.5s-119.5 -73.5 -201.5 -73.5c-70 0 -131.667 22.333 -185 67l-76 -69l-41 46l76 68c-35.333 49.333 -53 105.333 -53 168c0 81.333 24.5 146.833 73.5 196.5s114.167 74.5 195.5 74.5
c74 0 138.667 -21.333 194 -64l75 68l40 -46zM310 421c-44 0 -76.999 -15.667 -98.999 -47c-19.333 -27.333 -29 -64 -29 -110c0 -29.333 3.33301 -52.333 10 -69l207 189c-28.667 24.667 -58.334 37 -89.001 37zM430.001 330l-206 -189c24.667 -24.667 54.667 -37 90 -37
c42.667 0 75 16.667 97 50c18.667 28 28 64.333 28 109c0 22.667 -3 45 -9 67z" />
    <glyph glyph-name="ugrave" unicode="&#xf9;" horiz-adv-x="604" 
d="M267 587l-158 133h185l74 -133h-101zM380 0l0.000976562 50c-35.333 -43.333 -85.666 -65 -150.999 -65c-62.667 0 -107 18.333 -133 55c-21.333 30.667 -32 79 -32 145v337h155v-331c0 -21.333 0.666992 -34.333 2 -39c3.33301 -13.333 12.666 -24 27.999 -32
c13.333 -6.66699 27.666 -10 42.999 -10c59.333 0 89 29 89 87v325h153v-522h-154z" />
    <glyph glyph-name="uacute" unicode="&#xfa;" horiz-adv-x="604" 
d="M340 586h-102l73 133h182zM380 0l0.000976562 50c-35.333 -43.333 -85.666 -65 -150.999 -65c-62.667 0 -107 18.333 -133 55c-21.333 30.667 -32 79 -32 145v337h155v-331c0 -21.333 0.666992 -34.333 2 -39c3.33301 -13.333 12.666 -24 27.999 -32
c13.333 -6.66699 27.666 -10 42.999 -10c59.333 0 89 29 89 87v325h153v-522h-154z" />
    <glyph glyph-name="ucircumflex" unicode="&#xfb;" horiz-adv-x="604" 
d="M352 589l-49 62l-46 -63h-118l101 132h127l103 -131h-118zM380 0l0.000976562 50c-35.333 -43.333 -85.666 -65 -150.999 -65c-62.667 0 -107 18.333 -133 55c-21.333 30.667 -32 79 -32 145v337h155v-331c0 -21.333 0.666992 -34.333 2 -39
c3.33301 -13.333 12.666 -24 27.999 -32c13.333 -6.66699 27.666 -10 42.999 -10c59.333 0 89 29 89 87v325h153v-522h-154z" />
    <glyph glyph-name="udieresis" unicode="&#xfc;" horiz-adv-x="604" 
d="M348 596v125h157v-125h-157zM97 596v125h157v-125h-157zM380 0l0.000976562 50c-35.333 -43.333 -85.666 -65 -150.999 -65c-62.667 0 -107 18.333 -133 55c-21.333 30.667 -32 79 -32 145v337h155v-331c0 -21.333 0.666992 -34.333 2 -39
c3.33301 -13.333 12.666 -24 27.999 -32c13.333 -6.66699 27.666 -10 42.999 -10c59.333 0 89 29 89 87v325h153v-522h-154z" />
    <glyph glyph-name="yacute" unicode="&#xfd;" 
d="M69 0v522h152v-522h-152z" />
    <glyph glyph-name="thorn" unicode="&#xfe;" horiz-adv-x="521" 
d="M250 -14c-92.667 0 -176.668 33.6689 -252.001 101.002l97 88c48 -48 99 -72 153 -72c61.333 0 92 17.333 92 52c0 15.333 -36 33 -108 53c-91.333 25.333 -138.333 39 -141 41c-37.333 17.333 -56 55.666 -56 114.999c0 67.333 33.333 117 100 149
c36 17.333 75.667 26 119 26c80 0 158 -26 234 -78l-95 -88c-44.667 34.667 -88 52 -130 52c-49.333 0 -74 -13.667 -74 -41c0 -17.333 23 -31 69 -41c16 -2.66699 43.667 -8.33398 83 -17.001c104 -24 156 -76.333 156 -157c0 -61.333 -27 -108.333 -81 -141
c-45.333 -28 -100.666 -42 -165.999 -42zM278.999 -5.99805l-17.9971 -38.001c13.333 2 26.666 3 39.999 3c21.333 0 39.166 -5.66699 53.499 -17s21.5 -27.333 21.5 -48c0 -23.333 -10 -42.666 -30 -57.999s-42 -23 -66 -23c-36 0 -69 17 -99 51l28 23
c18.667 -21.333 36.667 -32 54 -32c9.33301 0 17.5 3.16699 24.5 9.5s10.5 13.833 10.5 22.5c0 26.667 -19 40 -57 40c-3.33301 0 -7.83301 -0.666992 -13.5 -2s-9.83398 -2 -12.501 -2l-12 18l32 58z" />
    <glyph glyph-name="ydieresis" unicode="&#xff;" horiz-adv-x="500" 
d="M297 597v124h157v-124h-157zM45 597v124h158v-124h-158zM316 -42c-15.333 -48 -33.333 -81.667 -54 -101c-24.667 -24.667 -60 -37 -106 -37h-111v123h54c42.667 0 64 12.667 64 38c0 10 -8.66699 43 -26 99l-137 442h164l86 -374l86 374h164z" />
    <glyph glyph-name="dotlessi" unicode="&#x131;" 
d="M69 0v522h152v-522h-152z" />
    <glyph glyph-name="Lslash" unicode="&#x141;" horiz-adv-x="542" 
d="M68 0v218l-68 -47v84l68 47v404h176v-281l191 132v-84l-191 -133v-191h276v-149h-452z" />
    <glyph glyph-name="lslash" unicode="&#x142;" 
d="M222 381v-381h-153v270l-69 -50v79l69 50v357h153v-246l70 50v-79z" />
    <glyph glyph-name="OE" unicode="&#x152;" horiz-adv-x="1104" 
d="M514 0l-0.000976562 15c-54 -19.333 -105.333 -29 -154 -29c-65.333 0 -123.333 16.667 -174 50s-87.667 80 -111 140c-22 56 -33 116.333 -33 181c0 58.667 9.33301 113.667 28 165c22 61.333 53.667 106.333 95 135c64.667 44.667 131.334 67 200.001 67
c49.333 0 99.333 -12 150 -36v18h533v-137h-356v-130h334v-136h-334v-163h390v-140h-568zM515.999 552c-34.667 23.333 -72.335 35 -113.002 35c-63.333 0 -110.666 -23.667 -141.999 -71c-27.333 -40.667 -41 -94 -41 -160c0 -67.333 13 -121.333 39 -162
c30.667 -48.667 77.667 -73 141 -73c34.667 0 73.334 11.333 116.001 34v397z" />
    <glyph glyph-name="oe" unicode="&#x153;" horiz-adv-x="938" 
d="M547 230c10 -82.667 51.998 -123.998 125.998 -123.998c60.667 0 102.334 29 125.001 87l119 -62l-39 -57c-51.333 -59.333 -121.666 -89 -210.999 -89c-76 0 -140.333 26.333 -193 79c-14.667 -15.333 -29.667 -28.333 -45 -39
c-36.667 -25.333 -84.334 -38 -143.001 -38c-47.333 0 -92 12 -134 36c-46 25.333 -76.667 59 -92 101c-18.667 50 -28 97.333 -28 142c0 81.333 23.333 146.666 70 195.999s110.334 74 191.001 74c67.333 0 127 -23 179 -69c50.667 46.667 113.667 70 189 70
c56 0 105.167 -14.667 147.5 -44s71.833 -70.333 88.5 -123c15.333 -48.667 23 -95.334 23 -140.001h-373zM754.998 352.002c-15.333 46.667 -49.332 70 -101.999 70c-60.667 0 -95.334 -32.333 -104.001 -97h212zM295.999 418.002c-38.667 0 -68 -17.001 -88 -51.001
c-16 -27.333 -24 -61.666 -24 -102.999c0 -103.333 37.667 -155 113 -155c36 0 63.333 17.667 82 53c14.667 27.333 22 61.333 22 102c0 102.667 -35 154 -105 154z" />
    <glyph glyph-name="Scaron" unicode="&#x160;" horiz-adv-x="688" 
d="M411 783h-133l-90 115h117l40 -51l39 51h115zM331 -16c-132.667 0 -240.001 47.999 -322.001 143.999l134 85c50 -60 118 -90 204 -90c30 0 57.333 6 82 18c32 15.333 48 36 48 62c0 30 -13 49 -39 57c-7.33301 2 -46.333 9 -117 21l-90 15
c-53.333 8.66699 -96.333 29 -129 61c-36 34.667 -54 78 -54 130c0 78.667 28.667 138.667 86 180c50.667 37.333 116.667 56 198 56c110 0 214 -44.333 312 -133l-129 -93c-62 58 -123.667 87 -185 87c-26.667 0 -50 -5.66699 -70 -17c-24 -13.333 -36 -32.333 -36 -57
c0 -27.333 14.667 -45.666 44 -54.999c18.667 -6 41.667 -10.667 69 -14l71 -9c47.333 -8 83.333 -16.333 108 -25c90.667 -30.667 136 -89.667 136 -177c0 -48 -13.667 -91.667 -41 -131c-53.333 -76.667 -146.666 -115 -279.999 -115z" />
    <glyph glyph-name="scaron" unicode="&#x161;" horiz-adv-x="521" 
d="M324 589h-125l-104 131h119l48 -63l46 63h118zM250 -14c-92.667 0 -176.668 33.6689 -252.001 101.002l97 88c48 -48 99 -72 153 -72c61.333 0 92 17.333 92 52c0 15.333 -36 33 -108 53c-91.333 25.333 -138.333 39 -141 41c-37.333 17.333 -56 55.666 -56 114.999
c0 67.333 33.333 117 100 149c36 17.333 75.667 26 119 26c80 0 158 -26 234 -78l-95 -88c-44.667 34.667 -88 52 -130 52c-49.333 0 -74 -13.667 -74 -41c0 -17.333 23 -31 69 -41c16 -2.66699 43.667 -8.33398 83 -17.001c104 -24 156 -76.333 156 -157
c0 -61.333 -27 -108.333 -81 -141c-45.333 -28 -100.666 -42 -165.999 -42z" />
    <glyph glyph-name="Ydieresis" unicode="&#x178;" horiz-adv-x="708" 
d="M385 782v116h160v-116h-160zM162 781v117h161v-117h-161zM441 334v-334h-174v329l-265 377h202l152 -242l30 53l121 189h201z" />
    <glyph glyph-name="Zcaron" unicode="&#x17d;" horiz-adv-x="625" 
d="M379 783h-132l-90 115h117l40 -51l38 51h116zM223 139h383v-139h-601v133l391 436h-358v137h570v-138z" />
    <glyph glyph-name="zcaron" unicode="&#x17e;" horiz-adv-x="542" 
d="M335 589h-126l-104 131h120l47 -63l46 63h119zM34 0v115l282 289h-252v118h447v-118l-278 -285h278v-119h-477z" />
    <glyph glyph-name="florin" unicode="&#x192;" horiz-adv-x="333" 
d="M358 577l-33.001 -0.000976562c-34 0 -55.333 -6.66699 -64 -20c-6 -9.33301 -10.667 -32.666 -14 -69.999h91l-10 -93h-92l-37 -347c-9.33301 -88.667 -20.333 -145 -33 -169c-23.333 -45.333 -70.666 -68 -141.999 -68c-26.667 0 -61 5 -103 15l11 102l32 -1
c37.333 -1.33301 60 8 68 28c5.33301 12.667 10.333 43.667 15 93l34 347h-71l9 93h73c4 34 7 56.667 9 68c4.66699 26.667 11 49 19 67c21.333 47.333 69 71 143 71c22.667 0 58 -4.66699 106 -14z" />
    <glyph glyph-name="circumflex" unicode="&#x2c6;" horiz-adv-x="271" 
d="M183 589l-49 62l-46 -63h-118l101 132h127l103 -131h-118z" />
    <glyph glyph-name="caron" unicode="&#x2c7;" horiz-adv-x="271" 
d="M200 589h-126l-105 131h120l48 -63l45 63h120z" />
    <glyph glyph-name="breve" unicode="&#x2d8;" horiz-adv-x="271" 
d="M135 571c-28 0 -54.666 5.99902 -79.999 17.999c-28.667 14 -47.334 32.833 -56.001 56.5s-14.667 48.834 -18 75.501h101c0 -41.333 17.333 -62 52 -62c36.667 0 55 20.333 55 61h101c-1.33301 -8 -3.66602 -20 -6.99902 -36
c-6.66699 -35.333 -24.334 -63.333 -53.001 -84c-26 -19.333 -57.667 -29 -95 -29z" />
    <glyph glyph-name="dotaccent" unicode="&#x2d9;" horiz-adv-x="271" 
d="M57 590v132h157v-132h-157z" />
    <glyph glyph-name="ring" unicode="&#x2da;" horiz-adv-x="271" 
d="M136 557c-28 0 -51.499 9.33301 -70.499 28s-28.5 42 -28.5 70c0 27.333 9.66699 50.666 29 69.999s42.666 29 69.999 29s50.5 -9.66699 69.5 -29s28.5 -42.666 28.5 -69.999s-9.5 -50.5 -28.5 -69.5s-42.167 -28.5 -69.5 -28.5zM136.001 695
c-11.333 0 -20.834 -3.83398 -28.501 -11.501s-11.5 -17.167 -11.5 -28.5c0 -26 13.333 -39 40 -39c10.667 0 19.834 3.83301 27.501 11.5s11.5 16.834 11.5 27.501c0 26.667 -13 40 -39 40z" />
    <glyph glyph-name="ogonek" unicode="&#x2db;" horiz-adv-x="271" 
d="M139 -175c-26.667 0 -48.998 5.66895 -66.998 17.002c-21.333 13.333 -32 32.666 -32 57.999c0 21.333 9 41.333 27 60c9.33301 9.33301 27.666 22.666 54.999 39.999h47c-33.333 -36 -50 -64.667 -50 -86c0 -27.333 15.667 -41 47 -41c11.333 0 24.333 5.66699 39 17
l26 -25c-30.667 -26.667 -61.334 -40 -92.001 -40z" />
    <glyph glyph-name="tilde" unicode="&#x2dc;" horiz-adv-x="271" 
d="M220 582c-17.333 0 -43.9971 7.66797 -79.9971 23.001s-59.667 23 -71 23c-19.333 0 -32.333 -15.333 -39 -46h-72c4.66699 43.333 12 75 22 95c16 31.333 41.667 47 77 47c17.333 0 43.166 -7.5 77.499 -22.5s57.166 -22.5 68.499 -22.5
c23.333 0 36.666 13.667 39.999 41h70c-5.33301 -42.667 -12.333 -73.334 -21 -92.001c-14 -30.667 -38 -46 -72 -46z" />
    <glyph glyph-name="hungarumlaut" unicode="&#x2dd;" horiz-adv-x="271" 
d="M217 586h-102l73 133h183zM3 586h-103l73 133h182z" />
    <glyph glyph-name="Delta" unicode="&#x394;" horiz-adv-x="745" 
d="M0 0l274 706h202l270 -706h-746zM369 540l-127 -401h261z" />
    <glyph glyph-name="Delta" unicode="&#x2206;" horiz-adv-x="745" 
d="M0 0l274 706h202l270 -706h-746zM369 540l-127 -401h261z" />
    <glyph glyph-name="Omega" unicode="&#x3a9;" horiz-adv-x="767" 
d="M427 0l-0.000976562 131.001c22 16 45 41 69 75c18.667 26.667 28 82.334 28 167.001c0 55.333 -9 100.666 -27 135.999c-23.333 46 -60 69 -110 69c-54 0 -93 -24.667 -117 -74c-18.667 -37.333 -28 -86 -28 -146c0 -53.333 6 -96.333 18 -129
c14.667 -42 41.334 -74.667 80.001 -98l-1 -131h-299v129h179c-106.667 50 -160 140.667 -160 272c0 97.333 30.333 175.666 91 234.999s140 89 238 89c61.333 0 113 -9 155 -27c108.667 -46.667 163 -137.667 163 -273c0 -142 -52.667 -240.667 -158 -296h179v-129h-300z
" />
    <glyph glyph-name="Omega" unicode="&#x2126;" horiz-adv-x="767" 
d="M427 0l-0.000976562 131.001c22 16 45 41 69 75c18.667 26.667 28 82.334 28 167.001c0 55.333 -9 100.666 -27 135.999c-23.333 46 -60 69 -110 69c-54 0 -93 -24.667 -117 -74c-18.667 -37.333 -28 -86 -28 -146c0 -53.333 6 -96.333 18 -129
c14.667 -42 41.334 -74.667 80.001 -98l-1 -131h-299v129h179c-106.667 50 -160 140.667 -160 272c0 97.333 30.333 175.666 91 234.999s140 89 238 89c61.333 0 113 -9 155 -27c108.667 -46.667 163 -137.667 163 -273c0 -142 -52.667 -240.667 -158 -296h179v-129h-300z
" />
    <glyph glyph-name="pi" unicode="&#x3c0;" horiz-adv-x="637" 
d="M540 -1c-56.667 -0.666992 -96.333 11.667 -119 37c-20 22.667 -30 62 -30 118v251h-157l-1 -405h-151l-1 405h-52v117h568v-117h-53l1 -213c0 -26.667 2.66699 -44 8 -52c7.33301 -10.667 23.333 -16 48 -16h10v-124z" />
    <glyph glyph-name="endash" unicode="&#x2013;" horiz-adv-x="626" 
d="M38 237v143h550v-143h-550z" />
    <glyph glyph-name="emdash" unicode="&#x2014;" horiz-adv-x="918" 
d="M38 237v143h842v-143h-842z" />
    <glyph glyph-name="quoteleft" unicode="&#x2018;" horiz-adv-x="250" 
d="M46 372l-0.000976562 156c0 49.333 14.333 90.5 43 123.5s67.334 53.167 116.001 60.5v-69c-36 -14 -56.667 -48.333 -62 -103h62v-168h-159z" />
    <glyph glyph-name="quoteright" unicode="&#x2019;" horiz-adv-x="250" 
d="M87 377c-15.333 -6 -29.333 -8.99902 -42 -8.99902v71c42.667 12.667 64 47 64 103h-64v164h159v-144c0 -92.667 -39 -154.334 -117 -185.001z" />
    <glyph glyph-name="quotesinglbase" unicode="&#x201a;" horiz-adv-x="250" 
d="M46 -173l-0.000976562 71c22 8 37.667 21.333 47 40c6 12 10.333 32.667 13 62h-61v168h160v-137c0 -58.667 -12.167 -103.5 -36.5 -134.5s-65.166 -54.167 -122.499 -69.5z" />
    <glyph glyph-name="quotedblleft" unicode="&#x201c;" horiz-adv-x="479" 
d="M276 371l-0.000976562 148.003c0 53.333 13.333 97.166 40 131.499s66 55.166 118 62.499v-71c-25.333 -7.33301 -42.666 -20.333 -51.999 -39c-7.33301 -14.667 -11 -36.334 -11 -65.001h63v-167h-158zM45.999 371.003l-0.000976562 148
c0 114.667 52.667 179.334 158 194.001v-71c-25.333 -7.33301 -42.666 -20.333 -51.999 -39c-7.33301 -14.667 -11 -36.334 -11 -65.001h63v-167h-158z" />
    <glyph glyph-name="quotedblright" unicode="&#x201d;" horiz-adv-x="479" 
d="M318 374c-14.667 -6 -28.666 -9 -41.999 -9v71c25.333 8 42.666 20.667 51.999 38c7.33301 14 11 35.667 11 65h-63v167h158v-148c0 -92 -38.667 -153.333 -116 -184zM87.001 374c-15.333 -6 -28.999 -9.00098 -40.999 -9.00098v71c25.333 8 42.666 20.667 51.999 38
c7.33301 14 11 35.667 11 65h-63v167h158v-148c0 -91.333 -39 -152.666 -117 -183.999z" />
    <glyph glyph-name="quotedblbase" unicode="&#x201e;" horiz-adv-x="479" 
d="M276 -175l0.000976562 70.9971c25.333 8 42.666 21 51.999 39c7.33301 14.667 11 36.334 11 65.001h-63v167h158v-148c0 -53.333 -13 -96.666 -39 -129.999c-27.333 -35.333 -67 -56.666 -119 -63.999zM46.001 -175.003v71c24.667 8.66699 41.667 21.667 51 39
c8 15.333 12 37 12 65h-63v167h158v-148c0 -112 -52.667 -176.667 -158 -194z" />
    <glyph glyph-name="dagger" unicode="&#x2020;" horiz-adv-x="583" 
d="M358 348v-467h-135v467h-184v127h184v234h135v-234h185v-127h-185z" />
    <glyph glyph-name="daggerdbl" unicode="&#x2021;" horiz-adv-x="583" 
d="M355 415v-232h161v-123h-160v-180h-131v181h-158v122h158v233h-158v121h159v169h130v-169h161v-122h-162z" />
    <glyph glyph-name="bullet" unicode="&#x2022;" horiz-adv-x="333" 
d="M42 226v248h249v-248h-249z" />
    <glyph glyph-name="ellipsis" unicode="&#x2026;" horiz-adv-x="1000" 
d="M770 0v126h127v-126h-127zM436 0v126h128v-126h-128zM102 0v126h128v-126h-128z" />
    <glyph glyph-name="perthousand" unicode="&#x2030;" horiz-adv-x="1250" 
d="M1061 -6c-57.333 0 -99.333 25 -126 75c-21.333 39.333 -32 90 -32 152c0 62.667 10.667 114.334 32 155.001c27.333 52 69.666 78 126.999 78c58 0 100.667 -26 128 -78c20.667 -40 31 -91.667 31 -155c0 -62.667 -11 -113.334 -33 -152.001
c-27.333 -50 -69.666 -75 -126.999 -75zM686 -6c-57.333 0 -99.3311 25 -125.998 75c-21.333 39.333 -32 90 -32 152c0 62.667 10.667 114.334 32 155.001c27.333 52 69.666 78 126.999 78s99.666 -26 126.999 -78c22 -40.667 33 -92.334 33 -155.001s-11 -113.667 -33 -153
c-27.333 -49.333 -70 -74 -128 -74zM289.002 -42l-79 42l375 721l80 -42zM184.002 228c-57.333 0 -99.334 25.335 -126.001 76.002c-20.667 39.333 -31 90.666 -31 153.999s10.667 114.666 32 153.999c28 50.667 71 76 129 76c56.667 0 98.334 -26 125.001 -78
c21.333 -40.667 32 -92 32 -154c0 -63.333 -11 -114.333 -33 -153c-27.333 -50 -70 -75 -128 -75zM1058 367.002c-35.333 0 -52.999 -50.334 -52.999 -151.001c0 -91.333 19.667 -137 59 -137c37.333 0 56 47.667 56 143c0 42.667 -2 72.334 -6 89.001
c-8.66699 37.333 -27.334 56 -56.001 56zM683.002 367.001c-35.333 0 -52.999 -50.334 -52.999 -151.001c0 -91.333 19.667 -137 59 -137c37.333 0 56 47.667 56 143c0 42.667 -2 72.334 -6 89.001c-8.66699 37.333 -27.334 56 -56.001 56zM185.003 602
c-37.333 0 -56 -50.333 -56 -151c0 -40 2 -68.333 6 -85c8.66699 -35.333 26 -53 52 -53c37.333 0 56 47.667 56 143c0 97.333 -19.333 146 -58 146z" />
    <glyph glyph-name="guilsinglleft" unicode="&#x2039;" horiz-adv-x="313" 
d="M67 0v706h176v-706h-176zM79 787v119h153v-119h-153z" />
    <glyph glyph-name="guilsinglright" unicode="&#x203a;" 
d="M69 0v522h152v-522h-152z" />
    <glyph glyph-name="fraction" unicode="&#x2044;" horiz-adv-x="750" 
d="M566 0l0.000976562 65.002c-58 -54 -127.333 -81 -208 -81c-98.667 0 -177.334 36.333 -236.001 109c-54.667 66.667 -82 150.667 -82 252c0 74 13.667 140.333 41 199c31.333 66 77.333 114 138 144c56.667 28 113.334 42 170.001 42c124 0 227.333 -54.333 310 -163
l-134 -81c-42 66 -96.667 99 -164 99c-62.667 0 -110 -23 -142 -69c-28.667 -40.667 -43 -93.334 -43 -158.001c0 -154.667 61.667 -232 185 -232c25.333 0 50.666 5 75.999 15c29.333 12 48.833 28.167 58.5 48.5s16.167 43.166 19.5 68.499h-158v134h307v-392h-138z
M385.001 771.002c-28 0 -54.666 5.99902 -79.999 17.999c-28.667 14 -47.334 32.833 -56.001 56.5s-14.667 48.834 -18 75.501h101c0 -41.333 17.333 -62 52 -62c36.667 0 55 20.333 55 61h101c-1.33301 -8 -3.66602 -20 -6.99902 -36
c-6.66699 -35.333 -24.334 -63.333 -53.001 -84c-26 -19.333 -57.667 -29 -95 -29z" />
    <glyph glyph-name="trademark" unicode="&#x2122;" horiz-adv-x="736" 
d="M598 374l1 253l-65 -253h-69l-68 257l4 -257h-82l1 332h126l54 -212l53 212h125l1 -332h-81zM191 638v-264h-86v264h-94v68h271v-68h-91z" />
    <glyph glyph-name="partialdiff" unicode="&#x2202;" horiz-adv-x="576" 
d="M260 -14c-68.667 0 -123.667 19.666 -165 58.999s-62 93 -62 161c0 68.667 18.667 124.334 56 167.001c39.333 45.333 92.666 68 159.999 68c44 0 83 -13.333 117 -40v8c0 52.667 -6.33301 92.667 -19 120c-18 38.667 -50.333 58 -97 58
c-19.333 0 -49.666 -5.33301 -90.999 -16l-16 126c48 15.333 96.667 23 146 23c94 0 160.333 -36 199 -108c29.333 -54 44 -132.333 44 -235c0 -260.667 -90.667 -391 -272 -391zM272 312.999c-25.333 0 -45.333 -11 -60 -33c-12.667 -19.333 -19 -42.333 -19 -69
c0 -27.333 6 -50 18 -68c14 -21.333 34 -32 60 -32c56.667 0 85 54 85 162c-24.667 26.667 -52.667 40 -84 40z" />
    <glyph glyph-name="product" unicode="&#x220f;" horiz-adv-x="750" 
d="M503 -122v692h-258l1 -692h-178v828h613v-828h-178z" />
    <glyph glyph-name="summation" unicode="&#x2211;" horiz-adv-x="615" 
d="M26 -122v130l238 287l-238 278v133h566v-136h-363l232 -269l-241 -284h372v-139h-566z" />
    <glyph glyph-name="radical" unicode="&#x221a;" horiz-adv-x="724" 
d="M427 -185h-157l-115 255l-72 -26l-50 128l211 79l95 -231l173 686h166z" />
    <glyph glyph-name="infinity" unicode="&#x221e;" horiz-adv-x="724" 
d="M522 110c-37.333 0 -69.3359 9.33203 -96.0029 27.999c-20.667 14.667 -43.667 39.334 -69 74.001l-19 -27c-19.333 -27.333 -39.166 -46.833 -59.499 -58.5s-46.833 -17.5 -79.5 -17.5c-56 0 -99 22 -129 66c-26 37.333 -39 85.333 -39 144
c0 57.333 14 106.666 42 147.999c32 46.667 75.333 70 130 70c38.667 0 74.334 -13.667 107.001 -41c16.667 -14 34.667 -35.667 54 -65c28.667 38.667 51 64.334 67 77.001c25.333 20 57 30 95 30c53.333 0 95.333 -22.333 126 -67c27.333 -39.333 41 -87 41 -143
c0 -58 -13.667 -107.333 -41 -148c-31.333 -46.667 -74.666 -70 -129.999 -70zM522.997 395.999c-21.333 0 -48.333 -25.333 -81 -76c30 -52 56.333 -78 79 -78c32.667 0 49 26 49 78c0 18.667 -3.33301 35 -10 49c-8 18 -20.333 27 -37 27zM204.997 398.999
c-17.333 0 -30.333 -8.99902 -39 -26.999c-7.33301 -14.667 -11 -31.334 -11 -50.001c0 -51.333 16 -77 48 -77c22 0 49 25.333 81 76c-30 52 -56.333 78 -79 78z" />
    <glyph glyph-name="integral" unicode="&#x222b;" horiz-adv-x="378" 
d="M306 589c-16.667 0 -27.667 -8.66699 -33 -26c-2.66699 -8.66699 -4 -24.334 -4 -47.001v-31l-1 -503c-3.33301 -27.333 -6.66602 -46.666 -9.99902 -57.999c-5.33301 -16 -14 -34.333 -26 -55c-18 -30 -59.667 -45 -125 -45c-26 0 -55.333 5.33301 -88 16v133
c18.667 -13.333 34.667 -20 48 -20c17.333 0 28.666 8.33301 33.999 25c2.66699 8.66699 4 24.667 4 48v35l-2 445c0 41.333 1.33301 70.333 4 87c8 46.667 24.333 79 49 97s61.667 27 111 27c28 0 57.667 -5.33301 89 -16v-134c-19.333 14.667 -36 22 -50 22z" />
    <glyph glyph-name="approxequal" unicode="&#x2248;" horiz-adv-x="724" 
d="M489 328c-26.667 0 -66.999 12.333 -120.999 37l-35 16c-42 19.333 -76.667 29 -104 29c-22 0 -41.667 -6.33301 -59 -19c-10.667 -8 -25.334 -23.333 -44.001 -46l-9 -11l-47 126c20 25.333 43 49 69 71c20 16.667 50 25 90 25c28.667 0 69 -11.333 121 -34l57 -25
c36.667 -16 63 -24 79 -24c23.333 0 46 8 68 24c14 10 32 27 54 51l46 -125l-38 -40c-38.667 -36.667 -81 -55 -127 -55zM489.001 91c-26.667 0 -66.999 12.333 -120.999 37l-35 16c-44 20 -78.667 30 -104 30c-24 0 -45.667 -8 -65 -24c-9.33301 -7.33301 -22 -21 -38 -41
l-9 -11l-47 126c20 26 43 49.667 69 71c19.333 16 49.333 24 90 24c28.667 0 69 -11.333 121 -34l57 -25c36.667 -16 63 -24 79 -24c20.667 0 42 7 64 21c15.333 9.33301 34.666 27.333 57.999 54l46 -125c-56 -63.333 -111 -95 -165 -95z" />
    <glyph glyph-name="approxequal" unicode="&#x22f2;" horiz-adv-x="724" 
d="M489 328c-26.667 0 -66.999 12.333 -120.999 37l-35 16c-42 19.333 -76.667 29 -104 29c-22 0 -41.667 -6.33301 -59 -19c-10.667 -8 -25.334 -23.333 -44.001 -46l-9 -11l-47 126c20 25.333 43 49 69 71c20 16.667 50 25 90 25c28.667 0 69 -11.333 121 -34l57 -25
c36.667 -16 63 -24 79 -24c23.333 0 46 8 68 24c14 10 32 27 54 51l46 -125l-38 -40c-38.667 -36.667 -81 -55 -127 -55zM489.001 91c-26.667 0 -66.999 12.333 -120.999 37l-35 16c-44 20 -78.667 30 -104 30c-24 0 -45.667 -8 -65 -24c-9.33301 -7.33301 -22 -21 -38 -41
l-9 -11l-47 126c20 26 43 49.667 69 71c19.333 16 49.333 24 90 24c28.667 0 69 -11.333 121 -34l57 -25c36.667 -16 63 -24 79 -24c20.667 0 42 7 64 21c15.333 9.33301 34.666 27.333 57.999 54l46 -125c-56 -63.333 -111 -95 -165 -95z" />
    <glyph glyph-name="notequal" unicode="&#x2260;" horiz-adv-x="724" 
d="M343 135l-69 -141h-126l69 141h-118v131h183l41 85h-224v132h289l66 133h126l-66 -133h111v-132h-176l-42 -85h218v-131h-282z" />
    <glyph glyph-name="lessequal" unicode="&#x2264;" horiz-adv-x="724" 
d="M124 371v153l464 194v-153l-316 -117l316 -121v-168zM124 0v132h464v-132h-464z" />
    <glyph glyph-name="greaterequal" unicode="&#x2265;" horiz-adv-x="724" 
d="M136 159v153l316 116l-316 122v168l464 -213v-152zM136 0v132h464v-132h-464z" />
    <glyph glyph-name="lozenge" unicode="&#x25ca;" horiz-adv-x="724" 
d="M440 0h-155l-196 354l198 352h155l194 -352zM366 573l-111 -220l104 -215l110 216z" />
    <glyph glyph-name="apple" unicode="&#xf000;" horiz-adv-x="667" 
d="M332 518c0 47.333 12.999 86.5 38.999 117.5s62.333 49.5 109 55.5v-10c0 -42.667 -14 -80 -42 -112c-29.333 -34 -64.666 -51 -105.999 -51zM470.999 -27c-11.333 0 -37.9971 8.66504 -79.9971 25.998c-6.66699 2.66699 -17 4 -31 4
c-26.667 0 -46.334 -2.66699 -59.001 -8c-36.667 -15.333 -62 -23 -76 -23c-36 0 -74.667 31 -116 93c-51.333 76.667 -77 157 -77 241c0 60.667 15.667 111.334 47 152.001c34.667 45.333 81.334 68 140.001 68c14.667 0 36.167 -5 64.5 -15s48.5 -15 60.5 -15
c13.333 0 35.166 5.33301 65.499 16s53.166 16 68.499 16c61.333 0 109.666 -23.667 144.999 -71c-53.333 -41.333 -80 -87.666 -80 -138.999c0 -71.333 33 -121 99 -149c-51.333 -130.667 -108.333 -196 -171 -196z" />
    <glyph glyph-name="fi" unicode="&#xf001;" horiz-adv-x="688" 
d="M331 -16c-132.667 0 -240.001 47.999 -322.001 143.999l134 85c50 -60 118 -90 204 -90c30 0 57.333 6 82 18c32 15.333 48 36 48 62c0 30 -13 49 -39 57c-7.33301 2 -46.333 9 -117 21l-90 15c-53.333 8.66699 -96.333 29 -129 61c-36 34.667 -54 78 -54 130
c0 78.667 28.667 138.667 86 180c50.667 37.333 116.667 56 198 56c110 0 214 -44.333 312 -133l-129 -93c-62 58 -123.667 87 -185 87c-26.667 0 -50 -5.66699 -70 -17c-24 -13.333 -36 -32.333 -36 -57c0 -27.333 14.667 -45.666 44 -54.999
c18.667 -6 41.667 -10.667 69 -14l71 -9c47.333 -8 83.333 -16.333 108 -25c90.667 -30.667 136 -89.667 136 -177c0 -48 -13.667 -91.667 -41 -131c-53.333 -76.667 -146.666 -115 -279.999 -115zM359.999 -11.001l-14.998 -33c13.333 2 26.333 3 39 3
c50.667 0 76 -21.667 76 -65c0 -24 -9.83301 -43.5 -29.5 -58.5s-41.834 -22.5 -66.501 -22.5c-37.333 0 -70.333 17 -99 51l28 23c18 -21.333 35.667 -32 53 -32c24 0 36 10.667 36 32c0 26.667 -19 40 -57 40c-3.33301 0 -7.83301 -0.666992 -13.5 -2
s-9.83398 -2 -12.501 -2l-12 18l28 52z" />
    <glyph glyph-name="fl" unicode="&#xf002;" horiz-adv-x="521" 
d="M250 -14c-92.667 0 -176.668 33.6689 -252.001 101.002l97 88c48 -48 99 -72 153 -72c61.333 0 92 17.333 92 52c0 15.333 -36 33 -108 53c-91.333 25.333 -138.333 39 -141 41c-37.333 17.333 -56 55.666 -56 114.999c0 67.333 33.333 117 100 149
c36 17.333 75.667 26 119 26c80 0 158 -26 234 -78l-95 -88c-44.667 34.667 -88 52 -130 52c-49.333 0 -74 -13.667 -74 -41c0 -17.333 23 -31 69 -41c16 -2.66699 43.667 -8.33398 83 -17.001c104 -24 156 -76.333 156 -157c0 -61.333 -27 -108.333 -81 -141
c-45.333 -28 -100.666 -42 -165.999 -42zM278.999 -5.99805l-17.9971 -38.001c13.333 2 26.666 3 39.999 3c21.333 0 39.166 -5.66699 53.499 -17s21.5 -27.333 21.5 -48c0 -23.333 -10 -42.666 -30 -57.999s-42 -23 -66 -23c-36 0 -69 17 -99 51l28 23
c18.667 -21.333 36.667 -32 54 -32c9.33301 0 17.5 3.16699 24.5 9.5s10.5 13.833 10.5 22.5c0 26.667 -19 40 -57 40c-3.33301 0 -7.83301 -0.666992 -13.5 -2s-9.83398 -2 -12.501 -2l-12 18l32 58z" />
    <glyph glyph-name=".null" horiz-adv-x="0" 
 />
    <glyph glyph-name="glyph2" 
 />
    <glyph glyph-name="HT" 
 />
    <glyph glyph-name="nonmarkingreturn" 
 />
    <glyph glyph-name="glyph247" 
 />
    <glyph glyph-name="glyph248" 
 />
  </font>
</defs>
</svg>
